STARTFONT 2.3
FONT -FontForge-Righteous-Book-R-Normal--14-140-72-72-P-75-ISO10646-1
SIZE 14 72 72  4
FONTBOUNDINGBOX 19 18 -3 -4
COMMENT "Generated by fontforge, http://fontforge.sourceforge.net"
COMMENT "Copyright (c) 2011 by Brian J. Bonislawsky DBA Astigmatic (AOETI) (astigma@astigmatic.com), with ReservedFont Name "Righteous""
STARTPROPERTIES 40
FOUNDRY "FontForge"
FAMILY_NAME "Righteous"
WEIGHT_NAME "Book"
SLANT "R"
SETWIDTH_NAME "Normal"
ADD_STYLE_NAME ""
PIXEL_SIZE 14
POINT_SIZE 140
RESOLUTION_X 72
RESOLUTION_Y 72
SPACING "P"
AVERAGE_WIDTH 75
CHARSET_REGISTRY "ISO10646"
CHARSET_ENCODING "1"
FONTNAME_REGISTRY ""
CHARSET_COLLECTIONS "ISO8859-2 ISO8859-9 ISO8859-4 ISO10646-1"
BITS_PER_PIXEL 4
FONT_NAME "Righteous-Regular"
FACE_NAME "Righteous"
COPYRIGHT "Copyright (c) 2011 by Brian J. Bonislawsky DBA Astigmatic (AOETI) (astigma@astigmatic.com), with ReservedFont Name "Righteous""
FONT_VERSION "1.000"
FONT_ASCENT 11
FONT_DESCENT 3
UNDERLINE_POSITION -2
UNDERLINE_THICKNESS 1
X_HEIGHT 7
CAP_HEIGHT 9
RAW_ASCENT 799
RAW_DESCENT 200
NORM_SPACE 4
RELATIVE_WEIGHT 40
RELATIVE_SETWIDTH 50
SUPERSCRIPT_X 0
SUPERSCRIPT_Y 6
SUPERSCRIPT_SIZE 9
SUBSCRIPT_X 0
SUBSCRIPT_Y 1
SUBSCRIPT_SIZE 9
AVG_LOWERCASE_WIDTH 74
AVG_UPPERCASE_WIDTH 88
ENDPROPERTIES
CHARS 372
STARTCHAR space
ENCODING 32
SWIDTH 279 0
DWIDTH 4 0
BBX 1 1 0 0
BITMAP
00
ENDCHAR
STARTCHAR exclam
ENCODING 33
SWIDTH 274 0
DWIDTH 4 0
BBX 4 11 0 -1
BITMAP
3CC1
3FF0
2FF0
1FE0
0FD0
0EC0
0EB0
0760
1B90
3FF1
0540
ENDCHAR
STARTCHAR quotedbl
ENCODING 34
SWIDTH 409 0
DWIDTH 6 0
BBX 5 4 0 6
BITMAP
3C7BC0
3F8CE0
2F7BD0
042330
ENDCHAR
STARTCHAR numbersign
ENCODING 35
SWIDTH 561 0
DWIDTH 8 0
BBX 8 8 0 1
BITMAP
00010110
005F3DB0
06DFCFD3
08FDDFA1
16F9CE30
5FFFFF70
1CD6F610
06436100
ENDCHAR
STARTCHAR dollar
ENCODING 36
SWIDTH 458 0
DWIDTH 6 0
BBX 6 10 0 0
BITMAP
004B00
005E00
09EFE7
5F9884
4FCB92
07BCEB
3999DC
5EEFC3
005E00
005E00
ENDCHAR
STARTCHAR percent
ENCODING 37
SWIDTH 685 0
DWIDTH 10 0
BBX 10 11 0 -1
BITMAP
0AEA005C10
5F6F41D800
7D0D67E100
5F6F6E7000
0AEA9D0000
0002F7AB40
000ACADBD0
004F4C74F1
00CA0BA7E0
05F204EF70
0000001100
ENDCHAR
STARTCHAR ampersand
ENCODING 38
SWIDTH 485 0
DWIDTH 7 0
BBX 6 10 0 0
BITMAP
000A60
017EB8
0CFEED
2F6000
0EC970
0CFDB0
2F6000
0ED999
04BFED
000C70
ENDCHAR
STARTCHAR quotesingle
ENCODING 39
SWIDTH 238 0
DWIDTH 3 0
BBX 3 4 0 6
BITMAP
3C70
3F80
2F70
0420
ENDCHAR
STARTCHAR parenleft
ENCODING 40
SWIDTH 351 0
DWIDTH 5 0
BBX 5 14 0 -2
BITMAP
001320
01DF40
08F900
0EF300
3FC000
6F9000
7F7000
7F8000
5FA000
2FD000
0DF300
07FA00
01DF30
003640
ENDCHAR
STARTCHAR parenright
ENCODING 41
SWIDTH 351 0
DWIDTH 5 0
BBX 5 14 0 -2
BITMAP
231000
5FC000
0BF600
04FD00
00EF20
00AF40
009F60
009F50
00BF40
00EF10
05FC00
0BF600
4FC000
463000
ENDCHAR
STARTCHAR asterisk
ENCODING 42
SWIDTH 589 0
DWIDTH 8 0
BBX 8 8 0 4
BITMAP
0008A100
010DF110
1EAEF9E5
3EFFFFF7
01BFFC20
03EFEF60
09F94FD0
00700610
ENDCHAR
STARTCHAR plus
ENCODING 43
SWIDTH 485 0
DWIDTH 7 0
BBX 7 6 0 2
BITMAP
007D5000
008F5000
6DEFED40
7FFFFF40
008F5000
007D4000
ENDCHAR
STARTCHAR comma
ENCODING 44
SWIDTH 264 0
DWIDTH 4 0
BBX 3 4 0 -2
BITMAP
1B80
4FF0
09C0
0640
ENDCHAR
STARTCHAR hyphen
ENCODING 45
SWIDTH 528 0
DWIDTH 7 0
BBX 7 2 0 4
BITMAP
2DDDDD70
3FFFFF80
ENDCHAR
STARTCHAR period
ENCODING 46
SWIDTH 263 0
DWIDTH 4 0
BBX 3 3 0 -1
BITMAP
1B80
4FE0
0630
ENDCHAR
STARTCHAR slash
ENCODING 47
SWIDTH 490 0
DWIDTH 7 0
BBX 7 10 0 0
BITMAP
00009C40
0002FE00
0008F800
000DF200
005FA000
00BF4000
02FD0000
09F70000
1EE10000
6F900000
ENDCHAR
STARTCHAR zero
ENCODING 48
SWIDTH 642 0
DWIDTH 9 0
BBX 9 11 0 -1
BITMAP
006CEC6000
07FFEFF700
1EF404FE10
4FA000AF40
6F80008F60
6F80007F60
5FA0009F50
1FE202EF10
09FEBEF900
019FFF9100
0001200000
ENDCHAR
STARTCHAR one
ENCODING 49
SWIDTH 317 0
DWIDTH 4 0
BBX 4 10 0 0
BITMAP
6CC6
7FF7
18F7
07F7
07F7
07F7
07F7
07F7
07F7
07F7
ENDCHAR
STARTCHAR two
ENCODING 50
SWIDTH 570 0
DWIDTH 8 0
BBX 8 10 0 0
BITMAP
0CCCC910
0FFFFFD1
02223CF5
00000AF6
029DEFE2
1DFFFD40
4FC21000
6F800000
6FFFFFF3
6FFFFFF3
ENDCHAR
STARTCHAR three
ENCODING 51
SWIDTH 586 0
DWIDTH 8 0
BBX 8 10 0 0
BITMAP
4CCCC920
5FFFFFD1
12223BF6
000008F7
01DDDFF2
01FFFFE1
00111AF7
000009F7
5FFFFFE2
5FFFFC40
ENDCHAR
STARTCHAR four
ENCODING 52
SWIDTH 630 0
DWIDTH 9 0
BBX 9 10 0 0
BITMAP
07C5000000
0AF408C300
0CF20AF400
0EF00AF400
2FD00AF400
4FA00AF400
6FFEEFFE30
8FFFFFFF40
00000AF400
00000AF400
ENDCHAR
STARTCHAR five
ENCODING 53
SWIDTH 585 0
DWIDTH 8 0
BBX 8 10 0 0
BITMAP
09CCCCC4
0DFFFFF5
0FF22221
1FE22000
3FFFFE70
3CCCCFF5
000006FA
000007FA
5FFFFFF4
5FFFFD50
ENDCHAR
STARTCHAR six
ENCODING 54
SWIDTH 615 0
DWIDTH 9 0
BBX 9 11 0 -1
BITMAP
002BC50000
01DF600000
08FA430000
0EFFFFB100
4FFC8DF900
6FD002FF10
7FA000DF20
5FE103FE00
0CFEBEF700
01BFFF8000
0002420000
ENDCHAR
STARTCHAR seven
ENCODING 55
SWIDTH 516 0
DWIDTH 7 0
BBX 8 10 0 0
BITMAP
8CCCCCC1
AFFFFFB0
2222BF60
0000EF10
0005FB00
000AF600
001FF100
006FB000
00BF5000
01FE1000
ENDCHAR
STARTCHAR eight
ENCODING 56
SWIDTH 618 0
DWIDTH 9 0
BBX 9 12 0 -1
BITMAP
0000100000
009EFD5000
09FECFF400
0DF207F900
0CF519F600
05FFFFE100
1DFC9EF800
6FA001EF10
7F8000DF20
2EF86BFB00
04DFFFA100
0002310000
ENDCHAR
STARTCHAR nine
ENCODING 57
SWIDTH 616 0
DWIDTH 9 0
BBX 9 11 0 0
BITMAP
0000100000
019FFC4000
0BFFEFF400
4FD208FC00
7F8001FF10
6F9002FF00
2FF75CFE00
07FFFFF900
00377EF400
00009FA000
0019FC1000
ENDCHAR
STARTCHAR colon
ENCODING 58
SWIDTH 276 0
DWIDTH 4 0
BBX 4 7 0 -1
BITMAP
0980
3FF1
0650
0000
1BA0
2FF1
0540
ENDCHAR
STARTCHAR semicolon
ENCODING 59
SWIDTH 276 0
DWIDTH 4 0
BBX 4 8 0 -2
BITMAP
0980
3FF1
0650
0000
1BA0
2FF1
08D0
0550
ENDCHAR
STARTCHAR less
ENCODING 60
SWIDTH 478 0
DWIDTH 7 0
BBX 6 9 0 1
BITMAP
000040
0007F9
006FF6
06FF60
4FF700
1BFE30
00AFE4
000AFA
000071
ENDCHAR
STARTCHAR equal
ENCODING 61
SWIDTH 539 0
DWIDTH 8 0
BBX 7 6 0 2
BITMAP
04444430
2FFFFFA0
19999960
17777750
2FFFFFA0
16666640
ENDCHAR
STARTCHAR greater
ENCODING 62
SWIDTH 478 0
DWIDTH 7 0
BBX 7 9 0 1
BITMAP
01300000
1DE30000
0AFE3000
00AFE200
000CFD10
006FF700
08FF6000
1EF60000
03500000
ENDCHAR
STARTCHAR question
ENCODING 63
SWIDTH 603 0
DWIDTH 8 0
BBX 8 11 0 -1
BITMAP
5CCCCB50
7FFFFFF6
122226FD
000002FE
0005BEF9
005FFF91
00AF6000
00792000
008C2000
00DF5000
00360000
ENDCHAR
STARTCHAR at
ENCODING 64
SWIDTH 629 0
DWIDTH 9 0
BBX 9 9 0 -1
BITMAP
0016861000
04EECED300
1EA359DC00
5F3FEF5F40
7D5E5F3F50
4F4DFFFF20
0BD4221100
01AFF60000
0002410000
ENDCHAR
STARTCHAR A
ENCODING 65
SWIDTH 673 0
DWIDTH 9 0
BBX 9 10 0 0
BITMAP
0019CA4000
03EFFFF800
0CFA36EF40
2FD0007F80
3FB0005FA0
3FB0005FA0
3FFEEEEFA0
3FFFFFFFA0
3FB0005FA0
3FB0005FA0
ENDCHAR
STARTCHAR B
ENCODING 66
SWIDTH 666 0
DWIDTH 9 0
BBX 9 10 0 0
BITMAP
1CCCCCA300
1FFFFFFF30
1FD2228F90
1FD0005FA0
1FFDDDFF40
1FFFFFFE30
1FD1118FA0
1FD0006FA0
1FFFFFFF50
1FFFFFD600
ENDCHAR
STARTCHAR C
ENCODING 67
SWIDTH 640 0
DWIDTH 9 0
BBX 9 11 0 -1
BITMAP
0018CEC710
02DFFFFF80
0CFB314B10
5FC0000000
8F70000000
9F60000000
6FA0000000
1EF8001700
05FFECEF70
003CFFFB20
0000131000
ENDCHAR
STARTCHAR D
ENCODING 68
SWIDTH 653 0
DWIDTH 9 0
BBX 9 10 0 0
BITMAP
1CCCB71000
1FFFFFE300
1FE24BFE10
1FD000BF70
1FD0005FA0
1FD0004FB0
1FD0009F80
1FD018FE20
1FFFFFF500
1FFFEA3000
ENDCHAR
STARTCHAR E
ENCODING 69
SWIDTH 578 0
DWIDTH 8 0
BBX 8 10 0 0
BITMAP
1CCCCCC7
1FFFFFF9
1FD22221
1FD00000
1FFDDD10
1FFFFF10
1FD11100
1FD00000
1FFFFFF9
1FFFFFF9
ENDCHAR
STARTCHAR F
ENCODING 70
SWIDTH 562 0
DWIDTH 8 0
BBX 8 10 0 0
BITMAP
1CCCCCC9
1FFFFFFC
1FD22222
1FD00000
1FFDDB00
1FFFFC00
1FD11100
1FD00000
1FD00000
1FD00000
ENDCHAR
STARTCHAR G
ENCODING 71
SWIDTH 665 0
DWIDTH 9 0
BBX 9 11 0 -1
BITMAP
0017CDC700
02DFFFFF70
0CFC414B10
5FD0000000
8F70000000
9F60002D90
6FA0003FB0
1EF7003FB0
05FFECEFB0
004CFFFB30
0000131000
ENDCHAR
STARTCHAR H
ENCODING 72
SWIDTH 689 0
DWIDTH 10 0
BBX 9 10 0 0
BITMAP
1CA0003C90
1FD0003FB0
1FD0003FB0
1FD0003FB0
1FFDDDEFB0
1FFFFFFFB0
1FD1114FB0
1FD0003FB0
1FD0003FB0
1FD0003FB0
ENDCHAR
STARTCHAR I
ENCODING 73
SWIDTH 270 0
DWIDTH 4 0
BBX 3 10 0 0
BITMAP
1CA0
1FD0
1FD0
1FD0
1FD0
1FD0
1FD0
1FD0
1FD0
1FD0
ENDCHAR
STARTCHAR J
ENCODING 74
SWIDTH 416 0
DWIDTH 6 0
BBX 5 10 0 0
BITMAP
000BC0
000EF0
000EF0
000EF0
000EF0
000EF0
000FF0
119FB0
DFFE20
CEB200
ENDCHAR
STARTCHAR K
ENCODING 75
SWIDTH 625 0
DWIDTH 9 0
BBX 9 10 0 0
BITMAP
1CA0009C50
1FD007FB00
1FD03FE200
1FD1DF4000
1FDAFC0000
1FFFFF4000
1FFE7FC000
1FF40CF600
1FD004FD10
1FD000BF70
ENDCHAR
STARTCHAR L
ENCODING 76
SWIDTH 562 0
DWIDTH 8 0
BBX 8 10 0 0
BITMAP
1CA00000
1FD00000
1FD00000
1FD00000
1FD00000
1FD00000
1FD00000
1FD00000
1FFFFFFB
1FFFFFFC
ENDCHAR
STARTCHAR M
ENCODING 77
SWIDTH 819 0
DWIDTH 11 0
BBX 11 10 0 0
BITMAP
019DC69DC400
0AFFFFFFFF30
1FE27FD18F80
2FC04FB05FA0
2FC04FB05FA0
2FC04FB05FA0
2FC04FB05FA0
2FC04FB05FA0
2FC04FB05FA0
2FC04FB05FA0
ENDCHAR
STARTCHAR N
ENCODING 78
SWIDTH 689 0
DWIDTH 10 0
BBX 9 10 0 0
BITMAP
1CC3003C90
1FFC003FB0
1FFF503FB0
1FEFD13FB0
1FD9F83FB0
1FD1EF5FB0
1FD06FDFB0
1FD00CFFB0
1FD003FFB0
1FD000AFB0
ENDCHAR
STARTCHAR O
ENCODING 79
SWIDTH 777 0
DWIDTH 11 0
BBX 11 11 0 -1
BITMAP
0017CDC71000
02DFFFFFC100
0CFB314CFB00
5FC00001EF30
8F7000009F60
9F6000008F70
6FA00000CF40
1EF80019FD00
05FFECEFE300
003CFFFB3000
000013100000
ENDCHAR
STARTCHAR P
ENCODING 80
SWIDTH 642 0
DWIDTH 9 0
BBX 9 10 0 0
BITMAP
1CCCCB6000
1FFFFFFA00
1FD225EF50
1FD0006FA0
1FD0005FB0
1FD001CF70
1FFEEFFC00
1FFFFE9100
1FD0000000
1FD0000000
ENDCHAR
STARTCHAR Q
ENCODING 81
SWIDTH 777 0
DWIDTH 11 0
BBX 11 12 0 -2
BITMAP
0017CDC71000
02DFFFFFC100
0CFB314CFB00
5FC00001EF30
8F7000009F60
9F6000008F70
6FA00000CF40
1EF80019FD00
05FFECEFE300
003CFFFE2000
000013EF4000
0000005FC000
ENDCHAR
STARTCHAR R
ENCODING 82
SWIDTH 651 0
DWIDTH 9 0
BBX 9 10 0 0
BITMAP
1CCCCB6000
1FFFFFFA00
1FD225EF50
1FD0006FA0
1FD0005FB0
1FD001CF70
1FFEEFFD10
1FFFFFF200
1FD00BF600
1FD004FC00
ENDCHAR
STARTCHAR S
ENCODING 83
SWIDTH 610 0
DWIDTH 9 0
BBX 9 10 0 0
BITMAP
03ACCCC900
2EFFFFFC00
8F92222200
9F60000000
4FFDDC8100
06EFFFFA00
000113EF10
000001EF10
2FFFFFFB00
2FFFFEA100
ENDCHAR
STARTCHAR T
ENCODING 84
SWIDTH 578 0
DWIDTH 8 0
BBX 8 10 0 0
BITMAP
ACCCCCCC
DFFFFFFF
222EF322
000EF000
000EF000
000EF000
000EF000
000EF000
000EF000
000EF000
ENDCHAR
STARTCHAR U
ENCODING 85
SWIDTH 673 0
DWIDTH 9 0
BBX 9 10 0 0
BITMAP
2C90004C80
3FB0005FA0
3FB0005FA0
3FB0005FA0
3FB0005FA0
3FB0005FA0
2FD0006F90
0DF703DF50
04FFFFFB00
004CFE8000
ENDCHAR
STARTCHAR V
ENCODING 86
SWIDTH 602 0
DWIDTH 8 0
BBX 9 10 0 0
BITMAP
AC4000BC30
8FA004FE00
4FE008FA00
0EF40DF500
09F82FE100
04FD6FA000
00EFDF5000
009FFE1000
004FFA0000
000EF50000
ENDCHAR
STARTCHAR W
ENCODING 87
SWIDTH 819 0
DWIDTH 11 0
BBX 11 11 0 -1
BITMAP
2CA03C904C80
2FC04FB05FA0
2FC04FB05FA0
2FC04FB05FA0
2FC04FB05FA0
2FC04FB05FA0
2FC04FB05FA0
1FD05FC06F90
0CFDFFFDFF40
02CFF9DFE700
000100010000
ENDCHAR
STARTCHAR X
ENCODING 88
SWIDTH 608 0
DWIDTH 9 0
BBX 9 10 0 0
BITMAP
9C7001CC30
3FF20AFB00
09FB3FF200
01EFEF7000
005FFD0000
004FFB0000
00CFFF6000
07FD5FE100
2EF40BF900
AFA003FF30
ENDCHAR
STARTCHAR Y
ENCODING 89
SWIDTH 620 0
DWIDTH 9 0
BBX 9 10 0 0
BITMAP
7C40008C30
9F6000BF40
9F6000BF40
8F7000CF30
4FD205FE10
0BFFEFF600
008EFD5000
000AF50000
000AF50000
000AF50000
ENDCHAR
STARTCHAR Z
ENCODING 90
SWIDTH 586 0
DWIDTH 8 0
BBX 8 10 0 0
BITMAP
8CCCCCC8
AFFFFFF3
2222CFA0
0003FF20
000BF900
004FF200
00CF8000
05FE1000
0DFFFFFD
6FFFFFFE
ENDCHAR
STARTCHAR bracketleft
ENCODING 91
SWIDTH 380 0
DWIDTH 5 0
BBX 5 14 0 -2
BITMAP
033320
2FFFC0
2FFB90
2FD000
2FD000
2FD000
2FD000
2FD000
2FD000
2FD000
2FD000
2FE870
2FFFC0
166650
ENDCHAR
STARTCHAR backslash
ENCODING 92
SWIDTH 490 0
DWIDTH 7 0
BBX 7 10 0 0
BITMAP
5C700000
1FE00000
0AF50000
04FC0000
00CF3000
006F9000
001EE100
0009F600
0003FD00
0000BF40
ENDCHAR
STARTCHAR bracketright
ENCODING 93
SWIDTH 380 0
DWIDTH 5 0
BBX 5 14 0 -2
BITMAP
133310
7FFF70
5BDF70
008F70
008F70
008F70
008F70
008F70
008F70
008F70
008F70
48CF70
7FFF70
366630
ENDCHAR
STARTCHAR asciicircum
ENCODING 94
SWIDTH 293 0
DWIDTH 4 0
BBX 4 3 0 7
BITMAP
0560
6FF7
A97C
ENDCHAR
STARTCHAR underscore
ENCODING 95
SWIDTH 598 0
DWIDTH 8 0
BBX 7 3 1 -4
BITMAP
69999910
AFFFFF10
34444400
ENDCHAR
STARTCHAR grave
ENCODING 96
SWIDTH 225 0
DWIDTH 3 0
BBX 3 3 0 7
BITMAP
2700
BF80
19C0
ENDCHAR
STARTCHAR a
ENCODING 97
SWIDTH 607 0
DWIDTH 9 0
BBX 8 9 0 -1
BITMAP
00388303
08FFFFAC
4FE66EFC
9F6004FC
AF4002FC
7F9009FC
1EFDDFFC
03CFFB4B
00011000
ENDCHAR
STARTCHAR b
ENCODING 98
SWIDTH 597 0
DWIDTH 8 0
BBX 8 12 0 -1
BITMAP
24200000
7F700000
7F700000
7F779600
7FFFFFC1
7FF85CF9
7FA001FE
6F8000EF
3FD105FD
0BFECFF5
019FFE50
00012000
ENDCHAR
STARTCHAR c
ENCODING 99
SWIDTH 521 0
DWIDTH 7 0
BBX 7 9 0 -1
BITMAP
00388400
07FFFF80
3FE66EB0
9F600300
AF400000
8F900720
1EFDCFD0
02CFFC30
00011000
ENDCHAR
STARTCHAR d
ENCODING 100
SWIDTH 606 0
DWIDTH 9 0
BBX 8 12 0 -1
BITMAP
00000043
000001FC
000001FC
003884FC
07FFFFFC
4FE66EFC
9F6005FC
AF4002FC
7FA009FC
1DFDDFFC
02BFFB4B
00011000
ENDCHAR
STARTCHAR e
ENCODING 101
SWIDTH 524 0
DWIDTH 7 0
BBX 7 9 0 -1
BITMAP
00488400
08FFFFA0
4FE6BFA0
9F64FC10
AF5EE200
7FEF3620
1DFECFD0
02BFFC30
00011000
ENDCHAR
STARTCHAR f
ENCODING 102
SWIDTH 395 0
DWIDTH 6 0
BBX 6 11 0 0
BITMAP
003BED
03FFEC
09F600
3DF652
AFFFF6
5DF983
0CF100
0CF100
0CF100
0CF100
0CF100
ENDCHAR
STARTCHAR g
ENCODING 103
SWIDTH 607 0
DWIDTH 9 0
BBX 8 11 0 -3
BITMAP
00388303
07FFFFAC
3FE66EFC
9F6004FC
AF4002FC
7F9009FC
1EFDDFFC
03CFFEFB
00024BF7
000DFFC0
000AB700
ENDCHAR
STARTCHAR h
ENCODING 104
SWIDTH 562 0
DWIDTH 8 0
BBX 8 11 0 0
BITMAP
14200000
4F900000
4F900000
4F966100
4FFFFE40
4FF89FD0
4FA00BF3
4F9009F4
4F9009F4
4F9009F4
4F9009F4
ENDCHAR
STARTCHAR i
ENCODING 105
SWIDTH 235 0
DWIDTH 3 0
BBX 3 11 0 0
BITMAP
1730
8FD0
4D80
1530
4F90
4F90
4F90
4F90
4F90
4F90
4F90
ENDCHAR
STARTCHAR j
ENCODING 106
SWIDTH 237 0
DWIDTH 3 0
BBX 6 14 -3 -3
BITMAP
000173
0007FD
0004D8
000153
0004F9
0004F9
0004F9
0004F9
0004F9
0004F9
0006F8
013DF4
1FFFA0
1CB600
ENDCHAR
STARTCHAR k
ENCODING 107
SWIDTH 539 0
DWIDTH 8 0
BBX 8 11 0 0
BITMAP
14200000
4F900000
4F900000
4F900452
4F904FC1
4F92EE20
4F9CF500
4FFFF800
4FFCEF20
4FE27FA0
4F900DF3
ENDCHAR
STARTCHAR l
ENCODING 108
SWIDTH 235 0
DWIDTH 3 0
BBX 3 11 0 0
BITMAP
1420
4F90
4F90
4F90
4F90
4F90
4F90
4F90
4F90
4F90
4F90
ENDCHAR
STARTCHAR m
ENCODING 109
SWIDTH 762 0
DWIDTH 11 0
BBX 10 8 0 0
BITMAP
1136305620
4EFFFDFFE4
4FE7EFC8FC
4F909F50DF
4F908F40DF
4F908F40DF
4F908F40DF
4F908F40DF
ENDCHAR
STARTCHAR n
ENCODING 110
SWIDTH 562 0
DWIDTH 8 0
BBX 8 8 0 0
BITMAP
11166100
4DEFFE40
4FF89FD0
4FA00AF3
4F9009F4
4F9009F4
4F9009F4
4F9009F4
ENDCHAR
STARTCHAR o
ENCODING 111
SWIDTH 579 0
DWIDTH 8 0
BBX 8 9 0 -1
BITMAP
00388400
08FFFF90
4FE66DF5
9F6004FA
AF4002FB
7FA008F9
1DFDDFE1
02BFFC30
00011000
ENDCHAR
STARTCHAR p
ENCODING 112
SWIDTH 608 0
DWIDTH 9 0
BBX 9 11 0 -3
BITMAP
1116861000
4CDFFFD200
4FF95AFB00
4FC000DF20
4FA000BF30
4FE202EF10
4FFECEF800
4FDEFF8000
4F90200000
4F90000000
3C70000000
ENDCHAR
STARTCHAR q
ENCODING 113
SWIDTH 607 0
DWIDTH 9 0
BBX 8 11 0 -3
BITMAP
00388303
08FFFFAC
4FE66EFC
9F6004FC
AF4002FC
7F9009FC
1EFDDFFC
02CFFCFC
000111FC
000001FC
000001CA
ENDCHAR
STARTCHAR r
ENCODING 114
SWIDTH 414 0
DWIDTH 6 0
BBX 6 8 0 0
BITMAP
110353
4CDFFA
4FFA85
4FB000
4F9000
4F9000
4F9000
4F9000
ENDCHAR
STARTCHAR s
ENCODING 115
SWIDTH 523 0
DWIDTH 7 0
BBX 7 8 0 0
BITMAP
00455530
1CFFFF80
6FB88850
7FB87500
1DFFFFA0
01455EF0
7DDDDFD0
8FFFFC30
ENDCHAR
STARTCHAR t
ENCODING 116
SWIDTH 437 0
DWIDTH 6 0
BBX 6 11 0 0
BITMAP
033000
0DF000
0DF000
4EF554
CFFFFC
7EF887
0DF000
0DF000
0BF400
05FFDA
005CFC
ENDCHAR
STARTCHAR u
ENCODING 117
SWIDTH 562 0
DWIDTH 8 0
BBX 8 9 0 -1
BITMAP
25200351
6F700BF2
6F700BF2
6F700BF2
6F700BF2
4FA01EF2
1DFCDFF2
02CFF9A2
00011000
ENDCHAR
STARTCHAR v
ENCODING 118
SWIDTH 532 0
DWIDTH 7 0
BBX 8 8 0 0
BITMAP
55100452
AF600EF2
5FB05FB0
0EF2AF60
08F8FE10
02FFF900
00CFF300
006FD000
ENDCHAR
STARTCHAR w
ENCODING 119
SWIDTH 756 0
DWIDTH 11 0
BBX 10 9 0 -1
BITMAP
2520351044
5F809F40EE
5F809F40EE
5F809F40EE
5F809F40EE
5F90AF40EE
1EFCFFEDFA
05EFD9FFB1
0001001100
ENDCHAR
STARTCHAR x
ENCODING 120
SWIDTH 528 0
DWIDTH 7 0
BBX 8 8 0 0
BITMAP
55200552
6FC06FC0
0AFAEE20
01DFF500
009FE100
04FEFA00
1EF4CF60
AF903FE2
ENDCHAR
STARTCHAR y
ENCODING 121
SWIDTH 562 0
DWIDTH 8 0
BBX 8 11 0 -3
BITMAP
25200351
6F700BF3
6F700BF3
6F700BF3
6F700BF3
4FA01EF3
1DFCDFF3
02CFEFF2
00128FD0
008FFE30
006C9200
ENDCHAR
STARTCHAR z
ENCODING 122
SWIDTH 481 0
DWIDTH 7 0
BBX 7 8 0 0
BITMAP
35555520
AFFFFE10
688DF600
002FC000
00AF4000
04FB0000
0CFEDD50
6FFFFF60
ENDCHAR
STARTCHAR braceleft
ENCODING 123
SWIDTH 466 0
DWIDTH 7 0
BBX 6 14 0 -2
BITMAP
000133
006FFF
00DFCB
00EF10
00EF10
01FF00
BFF800
BFF700
02FF00
00EF10
00EF10
00DF98
008FFF
000466
ENDCHAR
STARTCHAR bar
ENCODING 124
SWIDTH 267 0
DWIDTH 4 0
BBX 3 14 0 -2
BITMAP
0330
2FD0
2FD0
2FD0
2FD0
2FD0
2FD0
2FD0
2FD0
2FD0
2FD0
2FD0
2FD0
1650
ENDCHAR
STARTCHAR braceright
ENCODING 125
SWIDTH 466 0
DWIDTH 7 0
BBX 7 14 0 -2
BITMAP
13300000
7FFD1000
5BDF6000
008F7000
008F7000
007F9000
002DFF40
001DFF40
007F9000
008F7000
008F7000
48CF6000
7FFE2000
36620000
ENDCHAR
STARTCHAR asciitilde
ENCODING 126
SWIDTH 451 0
DWIDTH 6 0
BBX 6 4 0 3
BITMAP
045044
3FFBE9
4F7CF5
021010
ENDCHAR
STARTCHAR nonbreakingspace
ENCODING 160
SWIDTH 279 0
DWIDTH 4 0
BBX 1 1 0 0
BITMAP
00
ENDCHAR
STARTCHAR exclamdown
ENCODING 161
SWIDTH 274 0
DWIDTH 4 0
BBX 4 11 0 -2
BITMAP
0320
2FE0
1DC0
0540
0DB0
0EC0
0FD0
1FE0
2FF0
3FF0
3FF1
ENDCHAR
STARTCHAR cent
ENCODING 162
SWIDTH 462 0
DWIDTH 6 0
BBX 6 10 0 0
BITMAP
001C20
002F30
04EFE5
1EC6BA
6F3010
6F3010
1ED8DA
03CFC4
001F20
001F20
ENDCHAR
STARTCHAR sterling
ENCODING 163
SWIDTH 681 0
DWIDTH 10 0
BBX 9 10 0 0
BITMAP
0007B70000
00AFF80000
01FE410000
03FB000000
3AFD910000
5FFFF20000
16FC400000
03FB002EE0
03FFFFFF90
03FFFFE910
ENDCHAR
STARTCHAR currency
ENCODING 164
SWIDTH 454 0
DWIDTH 6 0
BBX 6 6 0 2
BITMAP
140023
6FEFEB
0E63E4
0F20C5
2EC9F6
4B7889
ENDCHAR
STARTCHAR yen
ENCODING 165
SWIDTH 653 0
DWIDTH 9 0
BBX 9 10 0 0
BITMAP
4C70006C60
5F90007F80
5F90007F80
4FA0008F70
1FF403EF30
07FFEFF900
0ADFFFEA10
0FFFFFFF20
0338FA3300
0006F80000
ENDCHAR
STARTCHAR brokenbar
ENCODING 166
SWIDTH 269 0
DWIDTH 4 0
BBX 3 14 0 -2
BITMAP
0330
2FD0
2FD0
2FD0
2FD0
2FD0
1650
0330
2FD0
2FD0
2FD0
2FD0
2FD0
1650
ENDCHAR
STARTCHAR section
ENCODING 167
SWIDTH 569 0
DWIDTH 8 0
BBX 8 10 0 0
BITMAP
03ACCC90
1EFFFFC0
3FC44310
1EFFFF90
2FEAADF3
2FD66CF4
0BFFFFF1
00577CF4
3DDDDEF2
4FFFFE60
ENDCHAR
STARTCHAR dieresis
ENCODING 168
SWIDTH 300 0
DWIDTH 4 0
BBX 5 3 0 7
BITMAP
100100
EA6F20
642800
ENDCHAR
STARTCHAR copyright
ENCODING 169
SWIDTH 655 0
DWIDTH 9 0
BBX 9 9 0 0
BITMAP
003ADB5000
05D766D700
1E5DAD2D30
5BA5000870
5AB3000780
2E6C691C40
08C687AA00
006EEE8000
0000100000
ENDCHAR
STARTCHAR ordfeminine
ENCODING 170
SWIDTH 451 0
DWIDTH 6 0
BBX 6 7 0 3
BITMAP
05DD83
1E65F4
2F00E4
0DAAF4
029832
166662
2AAAA3
ENDCHAR
STARTCHAR guillemotleft
ENCODING 171
SWIDTH 704 0
DWIDTH 10 0
BBX 10 7 0 0
BITMAP
000B8008A0
00BFA08FC1
0AFA07FC10
6FE13FF300
09FC16FE30
008FC06FE1
0007400570
ENDCHAR
STARTCHAR logicalnot
ENCODING 172
SWIDTH 529 0
DWIDTH 7 0
BBX 7 4 0 2
BITMAP
2DDDDD70
3FFFFF80
00005F80
00002530
ENDCHAR
STARTCHAR uni00AD
ENCODING 173
SWIDTH 418 0
DWIDTH 6 0
BBX 5 2 0 4
BITMAP
2DDDD0
2FFFF0
ENDCHAR
STARTCHAR registered
ENCODING 174
SWIDTH 439 0
DWIDTH 6 0
BBX 6 6 0 4
BITMAP
04AA60
29B994
639569
46DC46
08A9A0
001200
ENDCHAR
STARTCHAR macron
ENCODING 175
SWIDTH 247 0
DWIDTH 3 0
BBX 4 2 0 7
BITMAP
EEE6
8883
ENDCHAR
STARTCHAR degree
ENCODING 176
SWIDTH 381 0
DWIDTH 5 0
BBX 5 5 0 5
BITMAP
038500
3FEF70
7F1BC0
4FCF90
06B810
ENDCHAR
STARTCHAR plusminus
ENCODING 177
SWIDTH 516 0
DWIDTH 7 0
BBX 7 8 0 0
BITMAP
00274000
005F8000
3DEFED60
4FFFFF70
005F8000
00263000
3DDDDD60
4FFFFF70
ENDCHAR
STARTCHAR twosuperior
ENCODING 178
SWIDTH 355 0
DWIDTH 5 0
BBX 5 5 0 5
BITMAP
1CC800
08AF30
1CFE10
3F9610
4FFF20
ENDCHAR
STARTCHAR threesuperior
ENCODING 179
SWIDTH 354 0
DWIDTH 5 0
BBX 5 5 0 5
BITMAP
2CC800
29AF40
0AFF30
189F40
3FFC10
ENDCHAR
STARTCHAR acute
ENCODING 180
SWIDTH 225 0
DWIDTH 3 0
BBX 3 3 0 7
BITMAP
0540
5FD0
AA20
ENDCHAR
STARTCHAR mu
ENCODING 181
SWIDTH 571 0
DWIDTH 8 0
BBX 8 12 0 -4
BITMAP
15400252
2FB007F6
2FB007F6
2FB007F6
2FB007F6
2FD10BF6
2FFDCFF6
2FEFFB76
2F711000
2F600000
2F500000
01000000
ENDCHAR
STARTCHAR paragraph
ENCODING 182
SWIDTH 808 0
DWIDTH 11 0
BBX 11 10 0 0
BITMAP
0039CCCCCC40
06FFFFFFFF50
2FF76FB2AF50
6FA04FA0AF50
6F904FA0AF50
3FE34FA0AF50
09FFEFA0AF50
007DFFA0AF50
00004FA0AF50
00004FA0AF50
ENDCHAR
STARTCHAR periodcentered
ENCODING 183
SWIDTH 261 0
DWIDTH 4 0
BBX 3 3 0 3
BITMAP
2EB0
3FD0
0310
ENDCHAR
STARTCHAR cedilla
ENCODING 184
SWIDTH 208 0
DWIDTH 3 0
BBX 3 5 0 -4
BITMAP
0410
0E30
4AD0
CF90
0200
ENDCHAR
STARTCHAR onesuperior
ENCODING 185
SWIDTH 231 0
DWIDTH 3 0
BBX 3 5 0 5
BITMAP
5C50
3F60
0E60
0E60
0E60
ENDCHAR
STARTCHAR ordmasculine
ENCODING 186
SWIDTH 432 0
DWIDTH 6 0
BBX 6 7 0 3
BITMAP
05DD50
1E65F1
3E00E3
0DA9D1
028920
166662
2AAAA3
ENDCHAR
STARTCHAR guillemotright
ENCODING 187
SWIDTH 703 0
DWIDTH 10 0
BBX 10 7 0 0
BITMAP
1C600A9000
2DF61BF900
02DF51BF80
005FE12FF4
04EF42DF70
3FE41EF600
0830065000
ENDCHAR
STARTCHAR onequarter
ENCODING 188
SWIDTH 648 0
DWIDTH 9 0
BBX 9 10 0 0
BITMAP
0CA004C200
0CC00CA000
09C06F2000
09C1D80000
09C7E10000
001E7B7610
009D1F8F20
02F53F8F40
0AC05FFF80
3F40125F30
ENDCHAR
STARTCHAR onehalf
ENCODING 189
SWIDTH 637 0
DWIDTH 9 0
BBX 9 10 0 0
BITMAP
0CA004C200
0CC00CA000
09C06F2000
09C1D80000
09C7E10000
001E7BC900
009D079F50
02F50BFE20
0AC02FA710
3F402FFF40
ENDCHAR
STARTCHAR threequarters
ENCODING 190
SWIDTH 708 0
DWIDTH 10 0
BBX 10 10 0 0
BITMAP
5CC7006B10
39BF11E800
0DFF08E100
28BF3E6000
6FFA9D0000
0003F6C560
000BC3F8F0
004F35F8F1
00CA07FFF6
06F20127F1
ENDCHAR
STARTCHAR questiondown
ENCODING 191
SWIDTH 602 0
DWIDTH 8 0
BBX 8 11 0 -2
BITMAP
00001300
0000CF40
0000AE30
00004610
0000DF20
03BEFD00
2EFFC200
6FA10000
7F900000
2EFFFFFD
04CEFFFD
ENDCHAR
STARTCHAR Agrave
ENCODING 192
SWIDTH 673 0
DWIDTH 9 0
BBX 9 14 0 0
BITMAP
0018000000
007FB10000
0006D20000
0000000000
0019CA4000
03EFFFF800
0CFA36EF40
2FD0007F80
3FB0005FA0
3FB0005FA0
3FFEEEEFA0
3FFFFFFFA0
3FB0005FA0
3FB0005FA0
ENDCHAR
STARTCHAR Aacute
ENCODING 193
SWIDTH 673 0
DWIDTH 9 0
BBX 9 14 0 0
BITMAP
0000054000
00006FD000
0000BA1000
0000000000
0019CA4000
03EFFFF800
0CFA36EF40
2FD0007F80
3FB0005FA0
3FB0005FA0
3FFEEEEFA0
3FFFFFFFA0
3FB0005FA0
3FB0005FA0
ENDCHAR
STARTCHAR Acircumflex
ENCODING 194
SWIDTH 673 0
DWIDTH 9 0
BBX 9 13 0 0
BITMAP
0000720000
0009FD2000
00094A3000
0019CA4000
03EFFFF800
0CFA36EF40
2FD0007F80
3FB0005FA0
3FB0005FA0
3FFEEEEFA0
3FFFFFFFA0
3FB0005FA0
3FB0005FA0
ENDCHAR
STARTCHAR Atilde
ENCODING 195
SWIDTH 673 0
DWIDTH 9 0
BBX 9 13 0 0
BITMAP
0019639000
007FEEE000
0049294000
0019CA4000
03EFFFF800
0CFA36EF40
2FD0007F80
3FB0005FA0
3FB0005FA0
3FFEEEEFA0
3FFFFFFFA0
3FB0005FA0
3FB0005FA0
ENDCHAR
STARTCHAR Adieresis
ENCODING 196
SWIDTH 673 0
DWIDTH 9 0
BBX 9 13 0 0
BITMAP
0001000000
004F4CB000
0018155000
0019CA4000
03EFFFF800
0CFA36EF40
2FD0007F80
3FB0005FA0
3FB0005FA0
3FFEEEEFA0
3FFFFFFFA0
3FB0005FA0
3FB0005FA0
ENDCHAR
STARTCHAR Aring
ENCODING 197
SWIDTH 673 0
DWIDTH 9 0
BBX 9 12 0 0
BITMAP
0005EA0000
00098E0000
002AFD4000
03EFFFF800
0CFA36EF30
1FD0007F80
3FB0005FA0
3FB0005FA0
3FFEEEEFA0
3FFFFFFFA0
3FB0005FA0
3FB0005FA0
ENDCHAR
STARTCHAR AE
ENCODING 198
SWIDTH 988 0
DWIDTH 14 0
BBX 14 10 0 0
BITMAP
0019CCCCCCCCC5
03EFFFFFFFFFF6
0CFA326FA22221
2FD0005FA00000
3FB0005FEDDB00
3FB0005FFFFD00
3FFEEEEFA11100
3FFFFFFFA00000
3FB0005FFFFFF6
3FB0005FFFFFF6
ENDCHAR
STARTCHAR Ccedilla
ENCODING 199
SWIDTH 640 0
DWIDTH 9 0
BBX 9 14 0 -4
BITMAP
0018CEC710
02DFFFFF80
0CFB314B10
5FC0000000
8F70000000
9F60000000
6FA0000000
1EF8001700
05FFECEF70
003CFFFB20
0000D71000
00039E0000
000BFB0000
0000200000
ENDCHAR
STARTCHAR Egrave
ENCODING 200
SWIDTH 578 0
DWIDTH 8 0
BBX 8 13 0 0
BITMAP
00270000
00BF8000
0019C000
1CCCCCC7
1FFFFFF9
1FD22221
1FD00000
1FFDDD10
1FFFFF10
1FD11100
1FD00000
1FFFFFF9
1FFFFFF9
ENDCHAR
STARTCHAR Eacute
ENCODING 201
SWIDTH 578 0
DWIDTH 8 0
BBX 8 14 0 0
BITMAP
00000800
0001BF70
0003D600
00000000
1CCCCCC7
1FFFFFF9
1FD22221
1FD00000
1FFDDD10
1FFFFF10
1FD11100
1FD00000
1FFFFFF9
1FFFFFF9
ENDCHAR
STARTCHAR Ecircumflex
ENCODING 202
SWIDTH 578 0
DWIDTH 8 0
BBX 8 13 0 0
BITMAP
00027000
003EF900
00394A00
1CCCCCC7
1FFFFFF9
1FD22221
1FD00000
1FFDDD10
1FFFFF10
1FD11100
1FD00000
1FFFFFF9
1FFFFFF9
ENDCHAR
STARTCHAR Edieresis
ENCODING 203
SWIDTH 578 0
DWIDTH 8 0
BBX 8 13 0 0
BITMAP
00110100
00BC3F40
00551810
1CCCCCC7
1FFFFFF9
1FD22221
1FD00000
1FFDDD10
1FFFFF10
1FD11100
1FD00000
1FFFFFF9
1FFFFFF9
ENDCHAR
STARTCHAR Igrave
ENCODING 204
SWIDTH 270 0
DWIDTH 4 0
BBX 4 13 -1 0
BITMAP
0720
4FD2
04D5
01CA
01FD
01FD
01FD
01FD
01FD
01FD
01FD
01FD
01FD
ENDCHAR
STARTCHAR Iacute
ENCODING 205
SWIDTH 270 0
DWIDTH 4 0
BBX 5 14 0 0
BITMAP
003500
04EE10
09B200
000000
1CA000
1FD000
1FD000
1FD000
1FD000
1FD000
1FD000
1FD000
1FD000
1FD000
ENDCHAR
STARTCHAR Icircumflex
ENCODING 206
SWIDTH 270 0
DWIDTH 4 0
BBX 4 13 0 0
BITMAP
0630
7FE4
8586
1CA0
1FD0
1FD0
1FD0
1FD0
1FD0
1FD0
1FD0
1FD0
1FD0
ENDCHAR
STARTCHAR Idieresis
ENCODING 207
SWIDTH 270 0
DWIDTH 4 0
BBX 5 13 -1 0
BITMAP
010010
2F79E0
082470
01CA00
01FD00
01FD00
01FD00
01FD00
01FD00
01FD00
01FD00
01FD00
01FD00
ENDCHAR
STARTCHAR Eth
ENCODING 208
SWIDTH 672 0
DWIDTH 9 0
BBX 9 10 0 0
BITMAP
0ACCB92000
0CFFFFF600
0CF449FF40
0CF2007FB0
CFFD401FE0
EFFF401FF0
0CF2005FC0
0CF215EF50
0CFFFFF900
0CFFEC5000
ENDCHAR
STARTCHAR Ntilde
ENCODING 209
SWIDTH 689 0
DWIDTH 10 0
BBX 9 13 0 0
BITMAP
0018729000
006FEEF000
003A185000
1CC3003C90
1FFC003FB0
1FFF503FB0
1FEFD13FB0
1FD9F83FB0
1FD1EF5FB0
1FD06FDFB0
1FD00CFFB0
1FD003FFB0
1FD000AFB0
ENDCHAR
STARTCHAR Ograve
ENCODING 210
SWIDTH 777 0
DWIDTH 11 0
BBX 11 15 0 -1
BITMAP
000270000000
000BF8000000
00018C000000
000000000000
0017CDC71000
02DFFFFFC100
0CFB314CFB00
5FC00001EF30
8F7000009F60
9F6000008F70
6FA00000CF40
1EF80019FD00
05FFECEFE300
003CFFFB3000
000013100000
ENDCHAR
STARTCHAR Oacute
ENCODING 211
SWIDTH 777 0
DWIDTH 11 0
BBX 11 15 0 -1
BITMAP
000000720000
000009FA0000
00001D810000
000000000000
0017CDC71000
02DFFFFFC100
0CFB314CFB00
5FC00001EF30
8F7000009F60
9F6000008F70
6FA00000CF40
1EF80019FD00
05FFECEFE300
003CFFFB3000
000013100000
ENDCHAR
STARTCHAR Ocircumflex
ENCODING 212
SWIDTH 777 0
DWIDTH 11 0
BBX 11 14 0 -1
BITMAP
000017000000
0001CFB10000
0002A3B10000
0017CDC71000
02DFFFFFC100
0CFB314CFB00
5FC00001EF30
8F7000009F60
9F6000008F70
6FA00000CF40
1EF80019FD00
05FFECEFE300
003CFFFB3000
000013100000
ENDCHAR
STARTCHAR Otilde
ENCODING 213
SWIDTH 777 0
DWIDTH 11 0
BBX 11 14 0 -1
BITMAP
000394660000
000CEEE90000
000764920000
0017CDC71000
02DFFFFFC100
0CFB314CFB00
5FC00001EF30
8F7000009F60
9F6000008F70
6FA00000CF40
1EF80019FD00
05FFECEFE300
003CFFFB3000
000013100000
ENDCHAR
STARTCHAR Odieresis
ENCODING 214
SWIDTH 777 0
DWIDTH 11 0
BBX 11 14 0 -1
BITMAP
000010100000
0009E2F60000
000370830000
0017CDC71000
02DFFFFFC100
0CFB314CFB00
5FC00001EF30
8F7000009F60
9F6000008F70
6FA00000CF40
1EF80019FD00
05FFECEFE300
003CFFFB3000
000013100000
ENDCHAR
STARTCHAR multiply
ENCODING 215
SWIDTH 479 0
DWIDTH 7 0
BBX 6 6 0 2
BITMAP
033062
2EE8FC
08FFE4
07FFE3
1EEAFB
034071
ENDCHAR
STARTCHAR Oslash
ENCODING 216
SWIDTH 777 0
DWIDTH 11 0
BBX 11 11 0 -1
BITMAP
0017CDC8C800
02DFFFFFF300
0CFB31BFFB00
5FC005F9EF30
8F702EC08F70
9F60CE208F70
6FA8F600CF40
1EFFA019FD00
06FFECEFE300
0AFCFFFB3000
000013100000
ENDCHAR
STARTCHAR Ugrave
ENCODING 217
SWIDTH 673 0
DWIDTH 9 0
BBX 9 13 0 0
BITMAP
0008100000
005FC10000
0005D40000
2C90004C80
3FB0005FA0
3FB0005FA0
3FB0005FA0
3FB0005FA0
3FB0005FA0
2FD0006F90
0DF703DF50
04FFFFFB00
004CFE8000
ENDCHAR
STARTCHAR Uacute
ENCODING 218
SWIDTH 673 0
DWIDTH 9 0
BBX 9 14 0 0
BITMAP
0000045000
00005FE100
0000AA2000
0000000000
2C90004C80
3FB0005FA0
3FB0005FA0
3FB0005FA0
3FB0005FA0
3FB0005FA0
2FD0006F90
0DF703DF50
04FFFFFB00
004CFE8000
ENDCHAR
STARTCHAR Ucircumflex
ENCODING 219
SWIDTH 673 0
DWIDTH 9 0
BBX 9 13 0 0
BITMAP
0000720000
0009FD2000
00094A3000
2C90004C80
3FB0005FA0
3FB0005FA0
3FB0005FA0
3FB0005FA0
3FB0005FA0
2FD0006F90
0DF703DF50
04FFFFFB00
004CFE8000
ENDCHAR
STARTCHAR Udieresis
ENCODING 220
SWIDTH 673 0
DWIDTH 9 0
BBX 9 13 0 0
BITMAP
0001000000
004F4CB000
0018155000
2C90004C80
3FB0005FA0
3FB0005FA0
3FB0005FA0
3FB0005FA0
3FB0005FA0
2FD0006F90
0DF703DF50
04FFFFFB00
004CFE8000
ENDCHAR
STARTCHAR Yacute
ENCODING 221
SWIDTH 620 0
DWIDTH 9 0
BBX 9 13 0 0
BITMAP
0000081000
0001BF7000
0002D60000
7C40008C30
9F6000BF40
9F6000BF40
8F7000CF30
4FD205FE10
0BFFEFF600
008EFD5000
000AF50000
000AF50000
000AF50000
ENDCHAR
STARTCHAR Thorn
ENCODING 222
SWIDTH 637 0
DWIDTH 9 0
BBX 9 12 0 -1
BITMAP
0330000000
1FD0000000
1FFCCB6000
1FFFFFFA00
1FD225DF50
1FD0006FA0
1FD0005FB0
1FD002CF70
1FFEEFFC00
1FFFFE9100
1FD0000000
1660000000
ENDCHAR
STARTCHAR germandbls
ENCODING 223
SWIDTH 813 0
DWIDTH 11 0
BBX 12 11 0 0
BITMAP
003BEEE91000
03FFEEEFB000
09F6001EF000
3DF1025EE000
AFF16FFF7000
5DF1EF840000
0CF1EF887610
0CF16FFFFFD0
0CF102555CF3
0CF16DDDDFF1
0CF17FFFFD50
ENDCHAR
STARTCHAR agrave
ENCODING 224
SWIDTH 607 0
DWIDTH 9 0
BBX 8 12 0 -1
BITMAP
00630000
02FE3000
003C8000
00388303
08FFFFAC
4FE66EFC
9F6004FC
AF4002FC
7F9009FC
1EFDDFFC
03CFFB4B
00011000
ENDCHAR
STARTCHAR aacute
ENCODING 225
SWIDTH 607 0
DWIDTH 9 0
BBX 8 12 0 -1
BITMAP
00002700
0003EF30
0006C300
00388303
08FFFFAC
4FE66EFC
9F6004FC
AF4002FC
7F9009FC
1EFDDFFC
03CFFB4B
00011000
ENDCHAR
STARTCHAR acircumflex
ENCODING 226
SWIDTH 607 0
DWIDTH 9 0
BBX 8 12 0 -1
BITMAP
00045000
005FF600
00676800
00388303
08FFFFAC
4FE66EFC
9F6004FC
AF4002FC
7F9009FC
1EFDDFFC
03CFFB4B
00011000
ENDCHAR
STARTCHAR atilde
ENCODING 227
SWIDTH 607 0
DWIDTH 9 0
BBX 8 12 0 -1
BITMAP
00792930
02FEEF40
01A27800
00388303
08FFFFAC
4FE66EFC
9F6004FC
AF4002FC
7F9009FC
1EFDDFFC
03CFFB4B
00011000
ENDCHAR
STARTCHAR adieresis
ENCODING 228
SWIDTH 607 0
DWIDTH 9 0
BBX 8 12 0 -1
BITMAP
00100100
00E96F10
00742800
00388303
08FFFFAC
4FE66EFC
9F6004FC
AF4002FC
7F9009FC
1EFDDFFC
03CFFB4B
00011000
ENDCHAR
STARTCHAR aring
ENCODING 229
SWIDTH 607 0
DWIDTH 9 0
BBX 8 12 0 -1
BITMAP
001BC100
004BA500
0009A100
00388303
08FFFFAC
4FE66EFC
9F6004FC
AF4002FC
7F9009FC
1EFDDFFC
03CFFB4B
00011000
ENDCHAR
STARTCHAR ae
ENCODING 230
SWIDTH 976 0
DWIDTH 14 0
BBX 14 9 0 -1
BITMAP
00388303279610
08FFFFAEEFFFD2
4FE66EFFF88FE2
9F6004FFB1DF30
AF4002FF8BF500
7F9009FFEF8350
1EFDDFFFFFCFF3
03CFFB4B9FFE70
00011000012000
ENDCHAR
STARTCHAR ccedilla
ENCODING 231
SWIDTH 521 0
DWIDTH 7 0
BBX 7 12 0 -4
BITMAP
00388400
07FFFF80
3FE66EB0
9F600300
AF400000
7F900720
1EFDCFD0
02BFFC30
000B7000
0028F100
008FD000
00020000
ENDCHAR
STARTCHAR egrave
ENCODING 232
SWIDTH 524 0
DWIDTH 7 0
BBX 7 12 0 -1
BITMAP
00720000
03FD2000
004D5000
00488400
08FFFFA0
4FE6BFA0
9F64FC10
AF5EE200
7FEF3620
1DFECFD0
02BFFC30
00011000
ENDCHAR
STARTCHAR eacute
ENCODING 233
SWIDTH 524 0
DWIDTH 7 0
BBX 7 12 0 -1
BITMAP
00002600
0003EF20
0007C300
00489400
08FFFFA0
4FE6BFA0
9F64FC10
AF5EE200
7FEF3620
1DFECFD0
02BFFC30
00011000
ENDCHAR
STARTCHAR ecircumflex
ENCODING 234
SWIDTH 524 0
DWIDTH 7 0
BBX 7 12 0 -1
BITMAP
00072000
009FD200
0094A300
00488400
08FFFFA0
4FE6BFA0
9F64FC10
AF5EE200
7FEF3620
1DFECFD0
02BFFC30
00011000
ENDCHAR
STARTCHAR edieresis
ENCODING 235
SWIDTH 524 0
DWIDTH 7 0
BBX 7 12 0 -1
BITMAP
00100000
04F4CB00
01815500
00488400
08FFFFA0
4FE6BFA0
9F64FC10
AF5EE200
7FEF3620
1DFECFD0
02BFFC30
00011000
ENDCHAR
STARTCHAR igrave
ENCODING 236
SWIDTH 235 0
DWIDTH 3 0
BBX 4 11 -1 0
BITMAP
0800
7FB1
06D2
0153
04F9
04F9
04F9
04F9
04F9
04F9
04F9
ENDCHAR
STARTCHAR iacute
ENCODING 237
SWIDTH 235 0
DWIDTH 3 0
BBX 4 11 0 0
BITMAP
0063
07FB
0C91
1530
4F90
4F90
4F90
4F90
4F90
4F90
4F90
ENDCHAR
STARTCHAR icircumflex
ENCODING 238
SWIDTH 235 0
DWIDTH 3 0
BBX 4 11 0 0
BITMAP
0710
AFD2
A3A3
1530
4F90
4F90
4F90
4F90
4F90
4F90
4F90
ENDCHAR
STARTCHAR idieresis
ENCODING 239
SWIDTH 235 0
DWIDTH 3 0
BBX 5 10 -1 0
BITMAP
010100
5F3CA0
296940
04F900
04F900
04F900
04F900
04F900
04F900
04F900
ENDCHAR
STARTCHAR eth
ENCODING 240
SWIDTH 581 0
DWIDTH 8 0
BBX 8 12 0 -1
BITMAP
0009A300
02CEFEC7
02CCEFD6
0037AFC0
07FFFFF3
3FE66DF7
9F6004FA
AF4002FB
7FA008F8
1DFDDFE1
02BFFC30
00011000
ENDCHAR
STARTCHAR ntilde
ENCODING 241
SWIDTH 562 0
DWIDTH 8 0
BBX 8 11 0 0
BITMAP
00782920
04FEEF20
02A28700
11166100
4DEFFE40
4FF89FD0
4FA00AF3
4F9009F4
4F9009F4
4F9009F4
4F9009F4
ENDCHAR
STARTCHAR ograve
ENCODING 242
SWIDTH 579 0
DWIDTH 8 0
BBX 8 12 0 -1
BITMAP
00630000
02FE3000
003C7000
00389400
08FFFF90
4FE66DF5
9F6004FA
AF4002FB
7FA008F9
1DFDDFE1
02BFFC30
00011000
ENDCHAR
STARTCHAR oacute
ENCODING 243
SWIDTH 579 0
DWIDTH 8 0
BBX 8 12 0 -1
BITMAP
00002700
0003EF20
0007C300
00389400
08FFFF90
4FE66DF5
9F6004FA
AF4002FB
7FA008F9
1DFDDFE1
02BFFC30
00011000
ENDCHAR
STARTCHAR ocircumflex
ENCODING 244
SWIDTH 579 0
DWIDTH 8 0
BBX 8 12 0 -1
BITMAP
00045000
005FF600
00676700
00388400
08FFFF90
4FE66DF5
9F6004FA
AF4002FB
7FA008F9
1DFDDFE1
02BFFC30
00011000
ENDCHAR
STARTCHAR otilde
ENCODING 245
SWIDTH 579 0
DWIDTH 8 0
BBX 8 12 0 -1
BITMAP
00792920
02FEEF30
01A27700
00388400
08FFFF90
4FE66DF5
9F6004FA
AF4002FB
7FA008F9
1DFDDFE1
02BFFC30
00011000
ENDCHAR
STARTCHAR odieresis
ENCODING 246
SWIDTH 579 0
DWIDTH 8 0
BBX 8 12 0 -1
BITMAP
00100100
00E97F10
00743800
00388400
08FFFF90
4FE66DF5
9F6004FA
AF4002FB
7FA008F9
1DFDDFE1
02BFFC30
00011000
ENDCHAR
STARTCHAR divide
ENCODING 247
SWIDTH 494 0
DWIDTH 7 0
BBX 7 8 0 1
BITMAP
00150000
007F6000
00282000
5DDDDD40
6FFFFF50
00281000
007F6000
00150000
ENDCHAR
STARTCHAR oslash
ENCODING 248
SWIDTH 579 0
DWIDTH 8 0
BBX 8 9 0 -1
BITMAP
00388564
08FFFFF2
4FE6BFF5
9F64FCFA
AF5EC3FB
7FEE28F9
1EFEDFE1
4FEFFC30
00011000
ENDCHAR
STARTCHAR ugrave
ENCODING 249
SWIDTH 562 0
DWIDTH 8 0
BBX 8 12 0 -1
BITMAP
00710000
04FD2000
004D5000
25200351
6F700BF2
6F700BF2
6F700BF2
6F700BF2
4FA01EF2
1DFCDFF2
02CFF9A2
00011000
ENDCHAR
STARTCHAR uacute
ENCODING 250
SWIDTH 562 0
DWIDTH 8 0
BBX 8 12 0 -1
BITMAP
00003600
0004EE10
0008B200
25200351
6F700BF2
6F700BF2
6F700BF2
6F700BF2
4FA01EF2
1DFCDFF2
02CFF9A2
00011000
ENDCHAR
STARTCHAR ucircumflex
ENCODING 251
SWIDTH 562 0
DWIDTH 8 0
BBX 8 12 0 -1
BITMAP
00063000
007FE400
00858500
25200351
6F700BF2
6F700BF2
6F700BF2
6F700BF2
4FA01EF2
1DFCDFF2
02CFF9A2
00011000
ENDCHAR
STARTCHAR udieresis
ENCODING 252
SWIDTH 562 0
DWIDTH 8 0
BBX 8 11 0 -1
BITMAP
00100100
02F69D00
25A24A51
6F700BF2
6F700BF2
6F700BF2
6F700BF2
4FA01EF2
1DFCDFF2
02CFF9A2
00011000
ENDCHAR
STARTCHAR yacute
ENCODING 253
SWIDTH 562 0
DWIDTH 8 0
BBX 8 14 0 -3
BITMAP
00003500
0004EE10
0009B200
25200351
6F700BF3
6F700BF3
6F700BF3
6F700BF3
4FA01EF3
1DFCDFF3
02CFEFF2
00128FD0
008FFE30
006C9200
ENDCHAR
STARTCHAR thorn
ENCODING 254
SWIDTH 608 0
DWIDTH 9 0
BBX 9 14 0 -3
BITMAP
1540000000
4FA0000000
4FA0000000
4FB6871000
4FFFFFD200
4FF95AFB00
4FC000DF20
4FA000BF30
4FE202EF10
4FFECEF800
4FDEFF8000
4F90210000
4F90000000
3C70000000
ENDCHAR
STARTCHAR ydieresis
ENCODING 255
SWIDTH 562 0
DWIDTH 8 0
BBX 8 14 0 -3
BITMAP
00100100
02F69D00
00824600
25200351
6F700BF3
6F700BF3
6F700BF3
6F700BF3
4FA01EF3
1DFCDFF3
02CFEFF2
00128FD0
008FFE30
006C9200
ENDCHAR
STARTCHAR Amacron
ENCODING 256
SWIDTH 673 0
DWIDTH 9 0
BBX 9 12 0 0
BITMAP
000EEE6000
0008883000
0019CA4000
03EFFFF800
0CFA36EF40
2FD0007F80
3FB0005FA0
3FB0005FA0
3FFEEEEFA0
3FFFFFFFA0
3FB0005FA0
3FB0005FA0
ENDCHAR
STARTCHAR amacron
ENCODING 257
SWIDTH 607 0
DWIDTH 9 0
BBX 8 11 0 -1
BITMAP
00BEEA00
00688500
00388303
08FFFFAC
4FE66EFC
9F6004FC
AF4002FC
7F9009FC
1EFDDFFC
03CFFB4B
00011000
ENDCHAR
STARTCHAR Abreve
ENCODING 258
SWIDTH 673 0
DWIDTH 9 0
BBX 9 13 0 0
BITMAP
0007381000
000CDF1000
0001630000
0019CA4000
03EFFFF800
0CFA36EF40
2FD0007F80
3FB0005FA0
3FB0005FA0
3FFEEEEFA0
3FFFFFFFA0
3FB0005FA0
3FB0005FA0
ENDCHAR
STARTCHAR abreve
ENCODING 259
SWIDTH 607 0
DWIDTH 9 0
BBX 8 12 0 -1
BITMAP
00556300
008EE500
00065000
00388303
08FFFFAC
4FE66EFC
9F6004FC
AF4002FC
7F9009FC
1EFDDFFC
03CFFB4B
00011000
ENDCHAR
STARTCHAR Aogonek
ENCODING 260
SWIDTH 673 0
DWIDTH 9 0
BBX 9 13 0 -3
BITMAP
0019CA4000
03EFFFF800
0CFA36EF40
2FD0007F80
3FB0005FA0
3FB0005FA0
3FFEEEEFA0
3FFFFFFFA0
3FB0005FA0
3FB0005FA0
0000007A00
000000AEC0
0000001730
ENDCHAR
STARTCHAR aogonek
ENCODING 261
SWIDTH 607 0
DWIDTH 9 0
BBX 9 11 0 -3
BITMAP
0038830300
08FFFFAC00
4FE66EFC00
9F6004FC00
AF4002FC00
7F9009FC00
1EFDDFFC00
03CFFB4C00
000110B700
000000EE90
0000003720
ENDCHAR
STARTCHAR Cacute
ENCODING 262
SWIDTH 640 0
DWIDTH 9 0
BBX 9 15 0 -1
BITMAP
0000018000
00002DF400
00004D4000
0000000000
0018CEC710
02DFFFFF80
0CFB314B10
5FC0000000
8F70000000
9F60000000
6FA0000000
1EF8001700
05FFECEF70
003CFFFB20
0000131000
ENDCHAR
STARTCHAR cacute
ENCODING 263
SWIDTH 521 0
DWIDTH 7 0
BBX 7 12 0 -1
BITMAP
00004500
0004EE10
0009B200
00388400
07FFFF80
3FE66EB0
9F600300
AF400000
8F900720
1EFDCFD0
02CFFC30
00011000
ENDCHAR
STARTCHAR Ccircumflex
ENCODING 264
SWIDTH 640 0
DWIDTH 9 0
BBX 9 14 0 -1
BITMAP
0000360000
0004EF7000
0004959000
0018CEC710
02DFFFFF80
0CFB314B10
5FC0000000
8F70000000
9F60000000
6FA0000000
1EF8001700
05FFECEF70
003CFFFB20
0000131000
ENDCHAR
STARTCHAR ccircumflex
ENCODING 265
SWIDTH 521 0
DWIDTH 7 0
BBX 7 12 0 -1
BITMAP
00054000
005FF500
00676700
00388400
07FFFF80
3FE66EB0
9F600300
AF400000
8F900720
1EFDCFD0
02CFFC30
00011000
ENDCHAR
STARTCHAR Cdotaccent
ENCODING 266
SWIDTH 640 0
DWIDTH 9 0
BBX 9 14 0 -1
BITMAP
0000030000
00007F2000
0000260000
0018CEC710
02DFFFFF80
0CFB314B10
5FC0000000
8F70000000
9F60000000
6FA0000000
1EF8001700
05FFECEF70
003CFFFB20
0000131000
ENDCHAR
STARTCHAR cdotaccent
ENCODING 267
SWIDTH 521 0
DWIDTH 7 0
BBX 7 12 0 -1
BITMAP
00012000
000BD000
00044000
00388400
07FFFF80
3FE66EB0
9F600300
AF400000
8F900720
1EFDCFD0
02CFFC30
00011000
ENDCHAR
STARTCHAR Ccaron
ENCODING 268
SWIDTH 640 0
DWIDTH 9 0
BBX 9 14 0 -1
BITMAP
0002928000
0002DFB100
0000290000
0018CEC710
02DFFFFF80
0CFB314B10
5FC0000000
8F70000000
9F60000000
6FA0000000
1EF8001700
05FFECEF70
003CFFFB20
0000131000
ENDCHAR
STARTCHAR ccaron
ENCODING 269
SWIDTH 521 0
DWIDTH 7 0
BBX 7 12 0 -1
BITMAP
00565600
006FF700
00047000
00388400
07FFFF80
3FE66EB0
9F600300
AF400000
8F900720
1EFDCFD0
02CFFC30
00011000
ENDCHAR
STARTCHAR Dcaron
ENCODING 270
SWIDTH 653 0
DWIDTH 9 0
BBX 9 13 0 0
BITMAP
0009291000
001CFD2000
0001920000
1CCCB71000
1FFFFFE300
1FE24BFE10
1FD000BF70
1FD0005FA0
1FD0004FB0
1FD0009F80
1FD018FE20
1FFFFFF500
1FFFEA3000
ENDCHAR
STARTCHAR dcaron
ENCODING 271
SWIDTH 740 0
DWIDTH 10 0
BBX 11 12 0 -1
BITMAP
000000430000
000001FC3B20
000001FC5F50
003884FC0C10
07FFFFFC0000
4FE66EFC0000
9F6005FC0000
AF4002FC0000
7FA009FC0000
1DFDDFFC0000
02BFFB4B0000
000110000000
ENDCHAR
STARTCHAR Dcroat
ENCODING 272
SWIDTH 672 0
DWIDTH 9 0
BBX 9 10 0 0
BITMAP
0ACCB92000
0CFFFFF600
0CF449FF40
0CF2007FB0
CFFD401FE0
EFFF401FF0
0CF2005FC0
0CF215EF50
0CFFFFF900
0CFFEC5000
ENDCHAR
STARTCHAR dcroat
ENCODING 273
SWIDTH 606 0
DWIDTH 9 0
BBX 9 12 0 -1
BITMAP
0000004300
00000BFE60
00000DFF80
003884FC00
07FFFFFC00
4FE66EFC00
9F6005FC00
AF4002FC00
7FA009FC00
1DFDDFFC00
02BFFB4B00
0001100000
ENDCHAR
STARTCHAR Emacron
ENCODING 274
SWIDTH 578 0
DWIDTH 8 0
BBX 8 12 0 0
BITMAP
004EEE30
00288810
1CCCCCC7
1FFFFFF9
1FD22221
1FD00000
1FFDDD10
1FFFFF10
1FD11100
1FD00000
1FFFFFF9
1FFFFFF9
ENDCHAR
STARTCHAR emacron
ENCODING 275
SWIDTH 524 0
DWIDTH 7 0
BBX 7 11 0 -1
BITMAP
00BEEA00
00688500
00488400
08FFFFA0
4FE6BFA0
9F64FC10
AF5EE200
7FEF3620
1DFECFD0
02BFFC30
00011000
ENDCHAR
STARTCHAR Ebreve
ENCODING 276
SWIDTH 578 0
DWIDTH 8 0
BBX 8 13 0 0
BITMAP
00273500
002FDA00
00046100
1CCCCCC7
1FFFFFF9
1FD22221
1FD00000
1FFDDD10
1FFFFF10
1FD11100
1FD00000
1FFFFFF9
1FFFFFF9
ENDCHAR
STARTCHAR ebreve
ENCODING 277
SWIDTH 524 0
DWIDTH 7 0
BBX 7 12 0 -1
BITMAP
00546200
008EF400
00165000
00488400
08FFFFA0
4FE6BFA0
9F64FC10
AF5EE200
7FEF3620
1DFECFD0
02BFFC30
00011000
ENDCHAR
STARTCHAR Edotaccent
ENCODING 278
SWIDTH 578 0
DWIDTH 8 0
BBX 8 13 0 0
BITMAP
00003000
0007F200
00026000
1CCCCCC7
1FFFFFF9
1FD22221
1FD00000
1FFDDD10
1FFFFF10
1FD11100
1FD00000
1FFFFFF9
1FFFFFF9
ENDCHAR
STARTCHAR edotaccent
ENCODING 279
SWIDTH 524 0
DWIDTH 7 0
BBX 7 12 0 -1
BITMAP
00021000
000DB000
00044000
00488400
08FFFFA0
4FE6BFA0
9F64FC10
AF5EE200
7FEF3620
1DFECFD0
02BFFC30
00011000
ENDCHAR
STARTCHAR Eogonek
ENCODING 280
SWIDTH 578 0
DWIDTH 8 0
BBX 8 13 0 -3
BITMAP
1CCCCCC7
1FFFFFF9
1FD22221
1FD00000
1FFDDD10
1FFFFF10
1FD11100
1FD00000
1FFFFFF9
1FFFFFF9
00001E20
00004FE4
00000560
ENDCHAR
STARTCHAR eogonek
ENCODING 281
SWIDTH 524 0
DWIDTH 7 0
BBX 7 11 0 -3
BITMAP
00488400
08FFFFA0
4FE6BFA0
9F64FC10
AF5EE200
7FEF3620
1DFECFD0
02BFFD30
0002E300
0003FE50
00005610
ENDCHAR
STARTCHAR Ecaron
ENCODING 282
SWIDTH 578 0
DWIDTH 8 0
BBX 8 13 0 0
BITMAP
00292800
003EFB00
00029000
1CCCCCC7
1FFFFFF9
1FD22221
1FD00000
1FFDDD10
1FFFFF10
1FD11100
1FD00000
1FFFFFF9
1FFFFFF9
ENDCHAR
STARTCHAR ecaron
ENCODING 283
SWIDTH 524 0
DWIDTH 7 0
BBX 7 12 0 -1
BITMAP
00756500
007FF600
00065000
00488400
08FFFFA0
4FE6BFA0
9F64FC10
AF5EE200
7FEF3620
1DFECFD0
02BFFC30
00011000
ENDCHAR
STARTCHAR Gcircumflex
ENCODING 284
SWIDTH 665 0
DWIDTH 9 0
BBX 9 14 0 -1
BITMAP
0000260000
0003EF8000
0004949000
0017CDC700
02DFFFFF70
0CFC414B10
5FD0000000
8F70000000
9F60002D90
6FA0003FB0
1EF7003FB0
05FFECEFB0
004CFFFB30
0000131000
ENDCHAR
STARTCHAR gcircumflex
ENCODING 285
SWIDTH 607 0
DWIDTH 9 0
BBX 8 14 0 -3
BITMAP
00044000
005FF500
00676700
00388303
07FFFFAC
3FE66EFC
9F6004FC
AF4002FC
7F9009FC
1EFDDFFC
03CFFEFB
00024BF7
000DFFC0
000AB700
ENDCHAR
STARTCHAR Gbreve
ENCODING 286
SWIDTH 665 0
DWIDTH 9 0
BBX 9 14 0 -1
BITMAP
0002736000
0002FDA000
0000461000
0017CDC700
02DFFFFF70
0CFC414B10
5FD0000000
8F70000000
9F60002D90
6FA0003FB0
1EF7003FB0
05FFECEFB0
004CFFFB30
0000131000
ENDCHAR
STARTCHAR gbreve
ENCODING 287
SWIDTH 607 0
DWIDTH 9 0
BBX 8 14 0 -3
BITMAP
00455400
006EE600
00056000
00388303
07FFFFAC
3FE66EFC
9F6004FC
AF4002FC
7F9009FC
1EFDDFFC
03CFFEFB
00024BF7
000DFFC0
000AB700
ENDCHAR
STARTCHAR Gdotaccent
ENCODING 288
SWIDTH 665 0
DWIDTH 9 0
BBX 9 14 0 -1
BITMAP
0000120000
00009F1000
0000360000
0017CDC700
02DFFFFF70
0CFC414B10
5FD0000000
8F70000000
9F60002D90
6FA0003FB0
1EF7003FB0
05FFECEFB0
004CFFFB30
0000131000
ENDCHAR
STARTCHAR gdotaccent
ENCODING 289
SWIDTH 607 0
DWIDTH 9 0
BBX 8 14 0 -3
BITMAP
00021000
000DC000
00044000
00388303
07FFFFAC
3FE66EFC
9F6004FC
AF4002FC
7F9009FC
1EFDDFFC
03CFFEFB
00024BF7
000DFFC0
000AB700
ENDCHAR
STARTCHAR Gcommaaccent
ENCODING 290
SWIDTH 665 0
DWIDTH 9 0
BBX 9 14 0 -4
BITMAP
0017CDC700
02DFFFFF70
0CFC414B10
5FD0000000
8F70000000
9F60002D90
6FA0003FB0
1EF7003FB0
05FFECEFB0
004CFFFB30
0000361000
0000AF1000
00003E0000
0000140000
ENDCHAR
STARTCHAR gcommaaccent
ENCODING 291
SWIDTH 607 0
DWIDTH 9 0
BBX 8 15 0 -3
BITMAP
00021000
000B5000
000ED000
00055000
00388303
07FFFFAC
3FE66EFC
9F6004FC
AF4002FC
7F9009FC
1EFDDFFC
03CFFEFB
00024BF7
000DFFC0
000AB700
ENDCHAR
STARTCHAR Hcircumflex
ENCODING 292
SWIDTH 689 0
DWIDTH 10 0
BBX 9 13 0 0
BITMAP
0000620000
0008FE3000
0009594000
1CA0003C90
1FD0003FB0
1FD0003FB0
1FD0003FB0
1FFDDDEFB0
1FFFFFFFB0
1FD1114FB0
1FD0003FB0
1FD0003FB0
1FD0003FB0
ENDCHAR
STARTCHAR hcircumflex
ENCODING 293
SWIDTH 562 0
DWIDTH 8 0
BBX 8 11 0 0
BITMAP
14207200
4F98FE30
4F994940
4F966100
4FFFFE40
4FF89FD0
4FA00BF3
4F9009F4
4F9009F4
4F9009F4
4F9009F4
ENDCHAR
STARTCHAR Hbar
ENCODING 294
SWIDTH 689 0
DWIDTH 10 0
BBX 10 10 0 0
BITMAP
1CA0003C90
8FE999AFE4
CFFFFFFFF7
4FE4446FC2
1FFDDDEFB0
1FFFFFFFB0
1FD1114FB0
1FD0003FB0
1FD0003FB0
1FD0003FB0
ENDCHAR
STARTCHAR hbar
ENCODING 295
SWIDTH 562 0
DWIDTH 8 0
BBX 8 11 0 0
BITMAP
14200000
DFE30000
EFF30000
4F966100
4FFFFE40
4FF89FD0
4FA00BF3
4F9009F4
4F9009F4
4F9009F4
4F9009F4
ENDCHAR
STARTCHAR Itilde
ENCODING 296
SWIDTH 270 0
DWIDTH 4 0
BBX 6 13 -1 0
BITMAP
088291
5FEEF1
3A1860
01CA00
01FD00
01FD00
01FD00
01FD00
01FD00
01FD00
01FD00
01FD00
01FD00
ENDCHAR
STARTCHAR itilde
ENCODING 297
SWIDTH 235 0
DWIDTH 3 0
BBX 5 11 -1 0
BITMAP
296480
8FEED0
582940
015300
04F900
04F900
04F900
04F900
04F900
04F900
04F900
ENDCHAR
STARTCHAR Imacron
ENCODING 298
SWIDTH 270 0
DWIDTH 4 0
BBX 4 12 0 0
BITMAP
CEE9
6885
1CA0
1FD0
1FD0
1FD0
1FD0
1FD0
1FD0
1FD0
1FD0
1FD0
ENDCHAR
STARTCHAR imacron
ENCODING 299
SWIDTH 235 0
DWIDTH 3 0
BBX 5 9 -1 0
BITMAP
1EEE50
09CA30
04F900
04F900
04F900
04F900
04F900
04F900
04F900
ENDCHAR
STARTCHAR Ibreve
ENCODING 300
SWIDTH 270 0
DWIDTH 4 0
BBX 4 13 0 0
BITMAP
4563
7EE5
0650
1CA0
1FD0
1FD0
1FD0
1FD0
1FD0
1FD0
1FD0
1FD0
1FD0
ENDCHAR
STARTCHAR ibreve
ENCODING 301
SWIDTH 235 0
DWIDTH 3 0
BBX 4 10 0 0
BITMAP
6371
BDF1
3B70
4F90
4F90
4F90
4F90
4F90
4F90
4F90
ENDCHAR
STARTCHAR Iogonek
ENCODING 302
SWIDTH 270 0
DWIDTH 4 0
BBX 4 13 0 -3
BITMAP
1CA0
1FD0
1FD0
1FD0
1FD0
1FD0
1FD0
1FD0
1FD0
1FD0
4D10
7FD2
0650
ENDCHAR
STARTCHAR iogonek
ENCODING 303
SWIDTH 235 0
DWIDTH 3 0
BBX 4 14 0 -3
BITMAP
1730
8FD0
4D80
1530
4F90
4F90
4F90
4F90
4F90
4F90
4F90
6B00
9ED1
1740
ENDCHAR
STARTCHAR Idotaccent
ENCODING 304
SWIDTH 270 0
DWIDTH 4 0
BBX 3 13 0 0
BITMAP
0210
0EA0
0530
1CA0
1FD0
1FD0
1FD0
1FD0
1FD0
1FD0
1FD0
1FD0
1FD0
ENDCHAR
STARTCHAR dotlessi
ENCODING 305
SWIDTH 235 0
DWIDTH 3 0
BBX 3 8 0 0
BITMAP
1530
4F90
4F90
4F90
4F90
4F90
4F90
4F90
ENDCHAR
STARTCHAR IJ
ENCODING 306
SWIDTH 687 0
DWIDTH 10 0
BBX 9 10 0 0
BITMAP
1CA0002CA0
1FD0002FC0
1FD0002FC0
1FD0002FC0
1FD0002FC0
1FD0002FC0
1FD0003FC0
1FD012BF80
1FD1FFFD10
1FD1EE9100
ENDCHAR
STARTCHAR ij
ENCODING 307
SWIDTH 474 0
DWIDTH 7 0
BBX 7 14 0 -3
BITMAP
17306600
8FD3FF20
4D81CB10
15305500
4F90FE00
4F90FE00
4F90FE00
4F90FE00
4F90FE00
4F90FE00
4F91FD00
012AF900
0CFFD100
09B81000
ENDCHAR
STARTCHAR Jcircumflex
ENCODING 308
SWIDTH 416 0
DWIDTH 6 0
BBX 6 13 0 0
BITMAP
000440
005FF5
006767
000BC0
000EF0
000EF0
000EF0
000EF0
000EF0
000FF0
119FB0
DFFE20
CEB200
ENDCHAR
STARTCHAR jcircumflex
ENCODING 309
SWIDTH 237 0
DWIDTH 3 0
BBX 7 14 -3 -3
BITMAP
00007100
000AFD20
000A4A30
00015300
0004F900
0004F900
0004F900
0004F900
0004F900
0004F900
0006F800
013DF400
1FFFA000
1CB60000
ENDCHAR
STARTCHAR Kcommaaccent
ENCODING 310
SWIDTH 625 0
DWIDTH 9 0
BBX 9 14 0 -4
BITMAP
1CA0009C50
1FD007FB00
1FD03FE200
1FD1DF4000
1FDAFC0000
1FFFFF4000
1FFE7FC000
1FF40CF600
1FD004FD10
1FD000BF70
0001400000
0007F40000
0002E20000
0000500000
ENDCHAR
STARTCHAR kcommaaccent
ENCODING 311
SWIDTH 539 0
DWIDTH 8 0
BBX 8 15 0 -4
BITMAP
14200000
4F900000
4F900000
4F900452
4F904FC1
4F92EE20
4F9CF500
4FFFF800
4FFCEF20
4FE27FA0
4F900DF3
00031000
001FA000
000A8000
00041000
ENDCHAR
STARTCHAR kgreenlandic
ENCODING 312
SWIDTH 539 0
DWIDTH 8 0
BBX 8 8 0 0
BITMAP
15300452
4F904FC1
4F92EE20
4F9CF500
4FFFF800
4FFCEF20
4FE27FA0
4F900DF3
ENDCHAR
STARTCHAR Lacute
ENCODING 313
SWIDTH 562 0
DWIDTH 8 0
BBX 8 13 0 0
BITMAP
00006300
0007FC00
000B9100
1CA00000
1FD00000
1FD00000
1FD00000
1FD00000
1FD00000
1FD00000
1FD00000
1FFFFFFB
1FFFFFFC
ENDCHAR
STARTCHAR lacute
ENCODING 314
SWIDTH 235 0
DWIDTH 3 0
BBX 5 14 0 0
BITMAP
002700
02DF30
06D400
142000
4F9000
4F9000
4F9000
4F9000
4F9000
4F9000
4F9000
4F9000
4F9000
4F9000
ENDCHAR
STARTCHAR Lcommaaccent
ENCODING 315
SWIDTH 562 0
DWIDTH 8 0
BBX 8 14 0 -4
BITMAP
1CA00000
1FD00000
1FD00000
1FD00000
1FD00000
1FD00000
1FD00000
1FD00000
1FFFFFFB
1FFFFFFC
00032000
000EC000
0007B000
00033000
ENDCHAR
STARTCHAR lcommaaccent
ENCODING 316
SWIDTH 235 0
DWIDTH 3 0
BBX 3 15 0 -4
BITMAP
1420
4F90
4F90
4F90
4F90
4F90
4F90
4F90
4F90
4F90
4F90
0410
3F80
0B60
0510
ENDCHAR
STARTCHAR Lcaron
ENCODING 317
SWIDTH 562 0
DWIDTH 8 0
BBX 8 10 0 0
BITMAP
1CA1B400
1FD2F800
1FD0A300
1FD00000
1FD00000
1FD00000
1FD00000
1FD00000
1FFFFFFB
1FFFFFFC
ENDCHAR
STARTCHAR lcaron
ENCODING 318
SWIDTH 369 0
DWIDTH 5 0
BBX 6 11 0 0
BITMAP
142000
4F96A0
4F98F2
4F91B0
4F9000
4F9000
4F9000
4F9000
4F9000
4F9000
4F9000
ENDCHAR
STARTCHAR Ldot
ENCODING 319
SWIDTH 745 0
DWIDTH 10 0
BBX 10 10 0 0
BITMAP
1CA0000000
1FD0000000
1FD0000000
1FD0000000
1FD00005F8
1FD00006FA
1FD0000031
1FD0000000
1FFFFFFB00
1FFFFFFC00
ENDCHAR
STARTCHAR ldotaccent
ENCODING 320
SWIDTH 463 0
DWIDTH 7 0
BBX 6 11 0 0
BITMAP
142000
4F9000
4F9000
4F9000
4F9000
4F94F9
4F96FB
4F9031
4F9000
4F9000
4F9000
ENDCHAR
STARTCHAR Lslash
ENCODING 321
SWIDTH 585 0
DWIDTH 8 0
BBX 9 10 0 0
BITMAP
09C2000000
0CF3000000
0CF3000000
0CFA400000
1CFF400000
DFF6000000
BEF3000000
0CF3000000
0CFFFFFF10
0CFFFFFF10
ENDCHAR
STARTCHAR lslash
ENCODING 322
SWIDTH 319 0
DWIDTH 4 0
BBX 5 11 0 0
BITMAP
034000
0BF200
0BF200
0BF200
0BFA50
1CFF50
CFF600
BDF200
0BF200
0BF200
0BF200
ENDCHAR
STARTCHAR Nacute
ENCODING 323
SWIDTH 689 0
DWIDTH 10 0
BBX 9 13 0 0
BITMAP
0000054000
00005FD000
0000AA2000
1CC3003C90
1FFC003FB0
1FFF503FB0
1FEFD13FB0
1FD9F83FB0
1FD1EF5FB0
1FD06FDFB0
1FD00CFFB0
1FD003FFB0
1FD000AFB0
ENDCHAR
STARTCHAR nacute
ENCODING 324
SWIDTH 562 0
DWIDTH 8 0
BBX 8 11 0 0
BITMAP
00001800
0001CF50
0004D500
11166100
4DEFFE40
4FF89FD0
4FA00AF3
4F9009F4
4F9009F4
4F9009F4
4F9009F4
ENDCHAR
STARTCHAR Ncommaaccent
ENCODING 325
SWIDTH 689 0
DWIDTH 10 0
BBX 9 14 0 -4
BITMAP
1CC3003C90
1FFC003FB0
1FFF503FB0
1FEFD13FB0
1FD9F83FB0
1FD1EF5FB0
1FD06FDFB0
1FD00CFFB0
1FD003FFB0
1FD000AFB0
0000310000
0001FB0000
0000990000
0000420000
ENDCHAR
STARTCHAR ncommaaccent
ENCODING 326
SWIDTH 562 0
DWIDTH 8 0
BBX 8 12 0 -4
BITMAP
11166100
4DEFFE40
4FF89FD0
4FA00AF3
4F9009F4
4F9009F4
4F9009F4
4F9009F4
00032000
000EC000
0007B000
00033000
ENDCHAR
STARTCHAR Ncaron
ENCODING 327
SWIDTH 689 0
DWIDTH 10 0
BBX 9 13 0 0
BITMAP
0008373000
0009FF4000
0000740000
1CC3003C90
1FFC003FB0
1FFF503FB0
1FEFD13FB0
1FD9F83FB0
1FD1EF5FB0
1FD06FDFB0
1FD00CFFB0
1FD003FFB0
1FD000AFB0
ENDCHAR
STARTCHAR ncaron
ENCODING 328
SWIDTH 562 0
DWIDTH 8 0
BBX 8 11 0 0
BITMAP
00746400
007FF500
00065000
11166100
4DEFFE40
4FF89FD0
4FA00AF3
4F9009F4
4F9009F4
4F9009F4
4F9009F4
ENDCHAR
STARTCHAR napostrophe
ENCODING 329
SWIDTH 694 0
DWIDTH 10 0
BBX 10 10 0 0
BITMAP
9700000000
DC00000000
6721266100
006DFFFD30
006FE8AFC0
006F800DF1
006F700BF2
006F700BF2
006F700BF2
006F700BF2
ENDCHAR
STARTCHAR Eng
ENCODING 330
SWIDTH 689 0
DWIDTH 10 0
BBX 9 13 0 -3
BITMAP
1CC3003C90
1FFC003FB0
1FFF503FB0
1FEFD13FB0
1FD9F83FB0
1FD1EF5FB0
1FD06FDFB0
1FD00CFFB0
1FD004FFB0
1FD000AFA0
000135EF50
0002FFFA00
0002CB6000
ENDCHAR
STARTCHAR eng
ENCODING 331
SWIDTH 562 0
DWIDTH 8 0
BBX 8 11 0 -3
BITMAP
11166100
4DEFFE40
4FF89FD0
4FA00AF3
4F9009F4
4F9009F4
4F9009F4
4F900BF3
00116FD0
007FFF40
005CA200
ENDCHAR
STARTCHAR Omacron
ENCODING 332
SWIDTH 777 0
DWIDTH 11 0
BBX 11 13 0 -1
BITMAP
0004EEE20000
000288810000
0017CDC71000
02DFFFFFC100
0CFB314CFB00
5FC00001EF30
8F7000009F60
9F6000008F70
6FA00000CF40
1EF80019FD00
05FFECEFE300
003CFFFB3000
000013100000
ENDCHAR
STARTCHAR omacron
ENCODING 333
SWIDTH 579 0
DWIDTH 8 0
BBX 8 11 0 -1
BITMAP
009EEB00
00588600
00388400
08FFFF90
4FE66DF5
9F6004FA
AF4002FB
7FA008F9
1DFDDFE1
02BFFC30
00011000
ENDCHAR
STARTCHAR Obreve
ENCODING 334
SWIDTH 777 0
DWIDTH 11 0
BBX 11 14 0 -1
BITMAP
000073700000
0000EDE00000
000026300000
0017CDC71000
02DFFFFFC100
0CFB314CFB00
5FC00001EF30
8F7000009F60
9F6000008F70
6FA00000CF40
1EF80019FD00
05FFECEFE300
003CFFFB3000
000013100000
ENDCHAR
STARTCHAR obreve
ENCODING 335
SWIDTH 579 0
DWIDTH 8 0
BBX 8 12 0 -1
BITMAP
00364400
005EE800
00056100
00388400
08FFFF90
4FE66DF5
9F6004FA
AF4002FB
7FA008F9
1DFDDFE1
02BFFC30
00011000
ENDCHAR
STARTCHAR Ohungarumlaut
ENCODING 336
SWIDTH 777 0
DWIDTH 11 0
BBX 11 15 0 -1
BITMAP
000013000000
0000AE4D4000
0005F9CF5000
000150A30000
0017CDC71000
02DFFFFFC100
0CFB314CFB00
5FC00001EF30
8F7000009F60
9F6000008F70
6FA00000CF40
1EF80019FD00
05FFECEFE300
003CFFFB3000
000013100000
ENDCHAR
STARTCHAR ohungarumlaut
ENCODING 337
SWIDTH 579 0
DWIDTH 8 0
BBX 8 13 0 -1
BITMAP
00031000
001EB6C1
00AE7FC2
00333A10
00388400
08FFFF90
4FE66DF5
9F6004FA
AF4002FB
7FA008F9
1DFDDFE1
02BFFC30
00011000
ENDCHAR
STARTCHAR OE
ENCODING 338
SWIDTH 1125 0
DWIDTH 16 0
BBX 16 11 0 -1
BITMAP
0017CDC65CCCCCC4
02DFFFFFFFFFFFF4
0CFB314CFF922221
5FC00001EF800000
8F7000009FEDDA00
9F6000008FFFFC00
6FA00000CF911100
1EF80019FF800000
05FFECEFFFFFFFF4
003CFFFB9FFFFFF4
0000131000000000
ENDCHAR
STARTCHAR oe
ENCODING 339
SWIDTH 924 0
DWIDTH 13 0
BBX 13 9 0 -1
BITMAP
00388401697200
08FFFFADFFFE40
4FE66DFFB6FF50
9F6004FE1AF700
AF4002FD7FA000
7FA008FFFC1800
1DFDDFFFFCEF70
02BFFC26EFF910
00011000021000
ENDCHAR
STARTCHAR Racute
ENCODING 340
SWIDTH 651 0
DWIDTH 9 0
BBX 9 13 0 0
BITMAP
0000081000
0000AF9000
0001D70000
1CCCCB6000
1FFFFFFA00
1FD225EF50
1FD0006FA0
1FD0005FB0
1FD001CF70
1FFEEFFD10
1FFFFFF200
1FD00BF600
1FD004FC00
ENDCHAR
STARTCHAR racute
ENCODING 341
SWIDTH 414 0
DWIDTH 6 0
BBX 6 11 0 0
BITMAP
000270
002DF3
006C40
110353
4CDFFA
4FFA85
4FB000
4F9000
4F9000
4F9000
4F9000
ENDCHAR
STARTCHAR Rcommaaccent
ENCODING 342
SWIDTH 651 0
DWIDTH 9 0
BBX 9 14 0 -4
BITMAP
1CCCCB6000
1FFFFFFA00
1FD225EF50
1FD0006FA0
1FD0005FB0
1FD001CF70
1FFEEFFD10
1FFFFFF200
1FD00BF600
1FD004FC00
0000400000
0004F70000
0001C50000
0000500000
ENDCHAR
STARTCHAR rcommaaccent
ENCODING 343
SWIDTH 414 0
DWIDTH 6 0
BBX 6 12 0 -4
BITMAP
110353
4CDFFA
4FFA85
4FB000
4F9000
4F9000
4F9000
4F9000
041000
4F7000
1C6000
050000
ENDCHAR
STARTCHAR Rcaron
ENCODING 344
SWIDTH 651 0
DWIDTH 9 0
BBX 9 13 0 0
BITMAP
0019291000
001CFD2000
0001920000
1CCCCB6000
1FFFFFFA00
1FD225EF50
1FD0006FA0
1FD0005FB0
1FD001CF70
1FFEEFFD10
1FFFFFF200
1FD00BF600
1FD004FC00
ENDCHAR
STARTCHAR rcaron
ENCODING 345
SWIDTH 414 0
DWIDTH 6 0
BBX 6 11 0 0
BITMAP
074740
08FF50
006500
110353
4CDFFA
4FFA85
4FB000
4F9000
4F9000
4F9000
4F9000
ENDCHAR
STARTCHAR Sacute
ENCODING 346
SWIDTH 610 0
DWIDTH 9 0
BBX 9 14 0 0
BITMAP
0000081000
0000AF9000
0001D70000
0000000000
03ACCCC900
2EFFFFFC00
8F92222200
9F60000000
4FFDDC8100
06EFFFFA00
000113EF10
000001EF10
2FFFFFFB00
2FFFFEA100
ENDCHAR
STARTCHAR sacute
ENCODING 347
SWIDTH 523 0
DWIDTH 7 0
BBX 7 11 0 0
BITMAP
00003600
0004EE10
0008B200
00455530
1CFFFF80
6FB88850
7FB87500
1DFFFFA0
01455EF0
7DDDDFD0
8FFFFC30
ENDCHAR
STARTCHAR Scircumflex
ENCODING 348
SWIDTH 610 0
DWIDTH 9 0
BBX 9 13 0 0
BITMAP
0002700000
002DF90000
003A4A0000
03ACCCC900
2EFFFFFC00
8F92222200
9F60000000
4FFDDC8100
06EFFFFA00
000113EF10
000001EF10
2FFFFFFB00
2FFFFEA100
ENDCHAR
STARTCHAR scircumflex
ENCODING 349
SWIDTH 523 0
DWIDTH 7 0
BBX 7 11 0 0
BITMAP
00071000
00AFD200
00A3A300
00455530
1CFFFF80
6FB88850
7FB87500
1DFFFFA0
01455EF0
7DDDDFD0
8FFFFC30
ENDCHAR
STARTCHAR Scedilla
ENCODING 350
SWIDTH 610 0
DWIDTH 9 0
BBX 9 14 0 -4
BITMAP
03ACCCC900
2EFFFFFC00
8F92222200
9F60000000
4FFDDC8100
06EFFFFA00
000113EF10
000001EF10
2FFFFFFB00
2FFFFEA100
0002D20000
0005CA0000
001EF70000
0001100000
ENDCHAR
STARTCHAR scedilla
ENCODING 351
SWIDTH 523 0
DWIDTH 7 0
BBX 7 12 0 -4
BITMAP
00455530
1CFFFF80
6FB88850
7FB87500
1DFFFFA0
01455EF0
7DDDDFD0
8FFFFC30
000B6000
0028F100
009FC000
00020000
ENDCHAR
STARTCHAR Scaron
ENCODING 352
SWIDTH 610 0
DWIDTH 9 0
BBX 9 13 0 0
BITMAP
0038380000
003EFA0000
0003800000
03ACCCC900
2EFFFFFC00
8F92222200
9F60000000
4FFDDC8100
06EFFFFA00
000113EF10
000001EF10
2FFFFFFB00
2FFFFEA100
ENDCHAR
STARTCHAR scaron
ENCODING 353
SWIDTH 523 0
DWIDTH 7 0
BBX 7 11 0 0
BITMAP
00837300
009FF400
00074000
00455530
1CFFFF80
6FB88850
7FB87500
1DFFFFA0
01455EF0
7DDDDFD0
8FFFFC30
ENDCHAR
STARTCHAR Tcommaaccent
ENCODING 354
SWIDTH 578 0
DWIDTH 8 0
BBX 8 14 0 -4
BITMAP
ACCCCCCC
DFFFFFFF
222EF322
000EF000
000EF000
000EF000
000EF000
000EF000
000EF000
000EF000
00022000
000CE000
0006C000
00023000
ENDCHAR
STARTCHAR tcommaaccent
ENCODING 355
SWIDTH 437 0
DWIDTH 6 0
BBX 6 15 0 -4
BITMAP
033000
0DF000
0DF000
4EF554
CFFFFC
7EF887
0DF000
0DF000
0BF400
05FFDA
005CFC
002300
00CE00
005C00
002400
ENDCHAR
STARTCHAR Tcaron
ENCODING 356
SWIDTH 578 0
DWIDTH 8 0
BBX 8 13 0 0
BITMAP
00565600
006FF700
00056000
ACCCCCCC
DFFFFFFF
222EF322
000EF000
000EF000
000EF000
000EF000
000EF000
000EF000
000EF000
ENDCHAR
STARTCHAR tcaron
ENCODING 357
SWIDTH 570 0
DWIDTH 8 0
BBX 8 11 0 0
BITMAP
03300000
0DF00089
0DF000BE
4EF55449
CFFFFC00
7EF88700
0DF00000
0DF00000
0BF40000
05FFDA00
005CFC00
ENDCHAR
STARTCHAR Tbar
ENCODING 358
SWIDTH 578 0
DWIDTH 8 0
BBX 8 10 0 0
BITMAP
ACCCCCCC
DFFFFFFF
222EF322
000EF000
001EF200
01FFFF20
01CFFC20
000EF000
000EF000
000EF000
ENDCHAR
STARTCHAR tbar
ENCODING 359
SWIDTH 437 0
DWIDTH 6 0
BBX 6 11 0 0
BITMAP
033000
0DF000
0DF000
4EF554
CFFFFC
7EF887
8EFA40
CFFF70
1BF500
05FFDA
005DFC
ENDCHAR
STARTCHAR Utilde
ENCODING 360
SWIDTH 673 0
DWIDTH 9 0
BBX 9 13 0 0
BITMAP
0019639000
007FEEE000
0049294000
2C90004C80
3FB0005FA0
3FB0005FA0
3FB0005FA0
3FB0005FA0
3FB0005FA0
2FD0006F90
0DF703DF50
04FFFFFB00
004CFE8000
ENDCHAR
STARTCHAR utilde
ENCODING 361
SWIDTH 562 0
DWIDTH 8 0
BBX 8 12 0 -1
BITMAP
00882910
04FEEF20
02A28600
25200351
6F700BF2
6F700BF2
6F700BF2
6F700BF2
4FA01EF2
1DFCDFF2
02CFF9A2
00011000
ENDCHAR
STARTCHAR Umacron
ENCODING 362
SWIDTH 673 0
DWIDTH 9 0
BBX 9 12 0 0
BITMAP
000EEE6000
0008883000
2C90004C80
3FB0005FA0
3FB0005FA0
3FB0005FA0
3FB0005FA0
3FB0005FA0
2FD0006F90
0DF703DF50
04FFFFFB00
004CFE8000
ENDCHAR
STARTCHAR umacron
ENCODING 363
SWIDTH 562 0
DWIDTH 8 0
BBX 8 10 0 -1
BITMAP
00BEE900
25888851
6F700BF2
6F700BF2
6F700BF2
6F700BF2
4FA01EF2
1DFCDFF2
02CFF9A2
00011000
ENDCHAR
STARTCHAR Ubreve
ENCODING 364
SWIDTH 673 0
DWIDTH 9 0
BBX 9 13 0 0
BITMAP
0006372000
000ADF3000
0001640000
2C90004C80
3FB0005FA0
3FB0005FA0
3FB0005FA0
3FB0005FA0
3FB0005FA0
2FD0006F90
0DF703DF50
04FFFFFB00
004CFE8000
ENDCHAR
STARTCHAR ubreve
ENCODING 365
SWIDTH 562 0
DWIDTH 8 0
BBX 8 11 0 -1
BITMAP
00556300
008EE500
25365451
6F700BF2
6F700BF2
6F700BF2
6F700BF2
4FA01EF2
1DFCDFF2
02CFF9A2
00011000
ENDCHAR
STARTCHAR Uring
ENCODING 366
SWIDTH 673 0
DWIDTH 9 0
BBX 9 13 0 0
BITMAP
0003D80000
00097E0000
0003B70000
2C90004C80
3FB0005FA0
3FB0005FA0
3FB0005FA0
3FB0005FA0
3FB0005FA0
2FD0006F90
0DF703DF50
04FFFFFB00
004CFE8000
ENDCHAR
STARTCHAR uring
ENCODING 367
SWIDTH 562 0
DWIDTH 8 0
BBX 8 12 0 -1
BITMAP
001CB000
006AC300
001A9000
25200351
6F700BF2
6F700BF2
6F700BF2
6F700BF2
4FA01EF2
1DFCDFF2
02CFF9A2
00011000
ENDCHAR
STARTCHAR Uhungarumlaut
ENCODING 368
SWIDTH 673 0
DWIDTH 9 0
BBX 9 14 0 0
BITMAP
0000400000
0005F6B700
001EC9F900
0005177000
2C90004C80
3FB0005FA0
3FB0005FA0
3FB0005FA0
3FB0005FA0
3FB0005FA0
2FD0006F90
0DF703DF50
04FFFFFB00
004CFE8000
ENDCHAR
STARTCHAR uhungarumlaut
ENCODING 369
SWIDTH 562 0
DWIDTH 8 0
BBX 8 13 0 -1
BITMAP
00030000
003EA8A0
00CD7FB1
00424900
25200351
6F700BF2
6F700BF2
6F700BF2
6F700BF2
4FA01EF2
1DFCDFF2
02CFF9A2
00011000
ENDCHAR
STARTCHAR Uogonek
ENCODING 370
SWIDTH 673 0
DWIDTH 9 0
BBX 9 13 0 -3
BITMAP
2C90004C80
3FB0005FA0
3FB0005FA0
3FB0005FA0
3FB0005FA0
3FB0005FA0
2FD0006F90
0DF703DF50
05FFFFFB00
004BFD8100
0008A00000
000BEC0000
0002730000
ENDCHAR
STARTCHAR uogonek
ENCODING 371
SWIDTH 562 0
DWIDTH 8 0
BBX 9 11 0 -3
BITMAP
2520035100
6F700BF200
6F700BF200
6F700BF200
6F700BF200
4FA01EF200
1DFCDFF200
02CFF9C200
000115C000
000008ED10
0000016400
ENDCHAR
STARTCHAR Wcircumflex
ENCODING 372
SWIDTH 819 0
DWIDTH 11 0
BBX 11 14 0 -1
BITMAP
000007200000
00009FD20000
000094A30000
2CA03C904C80
2FC04FB05FA0
2FC04FB05FA0
2FC04FB05FA0
2FC04FB05FA0
2FC04FB05FA0
2FC04FB05FA0
1FD05FC06F90
0CFDFFFDFF40
02CFF9DFE700
000100010000
ENDCHAR
STARTCHAR wcircumflex
ENCODING 373
SWIDTH 756 0
DWIDTH 11 0
BBX 10 12 0 -1
BITMAP
0000270000
0002DF9000
0003A3A000
2520351044
5F809F40EE
5F809F40EE
5F809F40EE
5F809F40EE
5F90AF40EE
1EFCFFEDFA
05EFD9FFB1
0001001100
ENDCHAR
STARTCHAR Ycircumflex
ENCODING 374
SWIDTH 620 0
DWIDTH 9 0
BBX 9 13 0 0
BITMAP
0002700000
002DFA0000
002A3A0000
7C40008C30
9F6000BF40
9F6000BF40
8F7000CF30
4FD205FE10
0BFFEFF600
008EFD5000
000AF50000
000AF50000
000AF50000
ENDCHAR
STARTCHAR ycircumflex
ENCODING 375
SWIDTH 562 0
DWIDTH 8 0
BBX 8 14 0 -3
BITMAP
00054000
006FE500
00767600
25200351
6F700BF3
6F700BF3
6F700BF3
6F700BF3
4FA01EF3
1DFCDFF3
02CFEFF2
00128FD0
008FFE30
006C9200
ENDCHAR
STARTCHAR Ydieresis
ENCODING 376
SWIDTH 620 0
DWIDTH 9 0
BBX 9 13 0 0
BITMAP
0001010000
00AD2F5000
0046182000
7C40008C30
9F6000BF40
9F6000BF40
8F7000CF30
4FD205FE10
0BFFEFF600
008EFD5000
000AF50000
000AF50000
000AF50000
ENDCHAR
STARTCHAR Zacute
ENCODING 377
SWIDTH 586 0
DWIDTH 8 0
BBX 8 13 0 0
BITMAP
00001800
0001BF60
0003D600
8CCCCCC8
AFFFFFF3
2222CFA0
0003FF20
000BF900
004FF200
00CF8000
05FE1000
0DFFFFFD
6FFFFFFE
ENDCHAR
STARTCHAR zacute
ENCODING 378
SWIDTH 481 0
DWIDTH 7 0
BBX 7 11 0 0
BITMAP
00007200
0008FA00
001D8100
35555520
AFFFFE10
688DF600
002FC000
00AF4000
04FB0000
0CFEDD50
6FFFFF60
ENDCHAR
STARTCHAR Zdotaccent
ENCODING 379
SWIDTH 586 0
DWIDTH 8 0
BBX 8 13 0 0
BITMAP
00012000
000AE000
00035000
8CCCCCC8
AFFFFFF3
2222CFA0
0003FF20
000BF900
004FF200
00CF8000
05FE1000
0DFFFFFD
6FFFFFFE
ENDCHAR
STARTCHAR zdotaccent
ENCODING 380
SWIDTH 481 0
DWIDTH 7 0
BBX 7 10 0 0
BITMAP
00030000
006F3000
356B5520
AFFFFE10
688DF600
002FC000
00AF4000
04FB0000
0CFEDD50
6FFFFF60
ENDCHAR
STARTCHAR Zcaron
ENCODING 381
SWIDTH 586 0
DWIDTH 8 0
BBX 8 13 0 0
BITMAP
00474700
005FF800
00047000
8CCCCCC8
AFFFFFF3
2222CFA0
0003FF20
000BF900
004FF200
00CF8000
05FE1000
0DFFFFFD
6FFFFFFE
ENDCHAR
STARTCHAR zcaron
ENCODING 382
SWIDTH 481 0
DWIDTH 7 0
BBX 7 11 0 0
BITMAP
02929000
02DFB100
00291000
35555520
AFFFFE10
688DF600
002FC000
00AF4000
04FB0000
0CFEDD50
6FFFFF60
ENDCHAR
STARTCHAR AEacute
ENCODING 508
SWIDTH 988 0
DWIDTH 14 0
BBX 14 13 0 0
BITMAP
00000000630000
00000007FC0000
0000000C910000
0019CCCCCCCCC5
03EFFFFFFFFFF6
0CFA326FA22221
2FD0005FA00000
3FB0005FEDDB00
3FB0005FFFFD00
3FFEEEEFA11100
3FFFFFFFA00000
3FB0005FFFFFF6
3FB0005FFFFFF6
ENDCHAR
STARTCHAR aeacute
ENCODING 509
SWIDTH 976 0
DWIDTH 14 0
BBX 14 12 0 -1
BITMAP
00000000810000
0000000AF80000
0000002D700000
00388303279610
08FFFFAEEFFFD2
4FE66EFFF88FE2
9F6004FFB1DF30
AF4002FF8BF500
7F9009FFEF8350
1EFDDFFFFFCFF3
03CFFB4B9FFE70
00011000012000
ENDCHAR
STARTCHAR Oslashacute
ENCODING 510
SWIDTH 777 0
DWIDTH 11 0
BBX 11 15 0 -1
BITMAP
000000710000
000009F90000
00001D700000
000000000000
0017CDC8C800
02DFFFFFF300
0CFB31BFFB00
5FC005F9EF30
8F702EC08F70
9F60CE208F70
6FA8F600CF40
1EFFA019FD00
06FFECEFE300
0AFCFFFB3000
000013100000
ENDCHAR
STARTCHAR oslashacute
ENCODING 511
SWIDTH 579 0
DWIDTH 8 0
BBX 8 12 0 -1
BITMAP
00001800
0001CF50
0004D500
00389564
08FFFFF2
4FE6BFF5
9F64FCFA
AF5EC3FB
7FEE28F9
1EFEDFE1
4FEFFC30
00011000
ENDCHAR
STARTCHAR dotlessj
ENCODING 567
SWIDTH 237 0
DWIDTH 3 0
BBX 6 11 -3 -3
BITMAP
000153
0004F9
0004F9
0004F9
0004F9
0004F9
0004F9
0006F8
013DF4
1FFFA0
1CB600
ENDCHAR
STARTCHAR circumflex
ENCODING 710
SWIDTH 267 0
DWIDTH 4 0
BBX 4 3 0 7
BITMAP
0630
7FE4
8585
ENDCHAR
STARTCHAR caron
ENCODING 711
SWIDTH 267 0
DWIDTH 4 0
BBX 4 3 0 7
BITMAP
7474
8FF5
0740
ENDCHAR
STARTCHAR breve
ENCODING 728
SWIDTH 220 0
DWIDTH 3 0
BBX 3 3 0 7
BITMAP
7370
DDE0
2630
ENDCHAR
STARTCHAR dotaccent
ENCODING 729
SWIDTH 125 0
DWIDTH 2 0
BBX 2 3 0 7
BITMAP
21
EA
53
ENDCHAR
STARTCHAR ring
ENCODING 730
SWIDTH 192 0
DWIDTH 3 0
BBX 3 3 0 7
BITMAP
8D40
E7A0
6B30
ENDCHAR
STARTCHAR ogonek
ENCODING 731
SWIDTH 212 0
DWIDTH 3 0
BBX 3 4 0 -3
BITMAP
0600
A700
EE90
3720
ENDCHAR
STARTCHAR tilde
ENCODING 732
SWIDTH 321 0
DWIDTH 5 0
BBX 5 3 0 7
BITMAP
592740
EEEF60
946910
ENDCHAR
STARTCHAR hungarumlaut
ENCODING 733
SWIDTH 384 0
DWIDTH 5 0
BBX 6 4 0 7
BITMAP
030000
2EB7B1
BE7FC1
423A10
ENDCHAR
STARTCHAR uni0312
ENCODING 786
SWIDTH 192 0
DWIDTH 3 0
BBX 3 4 0 7
BITMAP
0200
5B00
8F30
2700
ENDCHAR
STARTCHAR uni0315
ENCODING 789
SWIDTH 132 0
DWIDTH 2 0
BBX 2 3 0 7
BITMAP
97
DC
67
ENDCHAR
STARTCHAR uni0326
ENCODING 806
SWIDTH 193 0
DWIDTH 3 0
BBX 3 4 0 -4
BITMAP
1400
8F40
2E20
0500
ENDCHAR
STARTCHAR pi
ENCODING 960
SWIDTH 555 0
DWIDTH 8 0
BBX 8 8 0 0
BITMAP
45555553
BFFFFFF8
6CFACFB4
09F48F60
09F48F60
09F48F60
09F48F60
09F48F60
ENDCHAR
STARTCHAR Wgrave
ENCODING 7808
SWIDTH 819 0
DWIDTH 11 0
BBX 11 14 0 -1
BITMAP
000170000000
000AF9000000
00008D100000
2CA03C904C80
2FC04FB05FA0
2FC04FB05FA0
2FC04FB05FA0
2FC04FB05FA0
2FC04FB05FA0
2FC04FB05FA0
1FD05FC06F90
0CFDFFFDFF40
02CFF9DFE700
000100010000
ENDCHAR
STARTCHAR wgrave
ENCODING 7809
SWIDTH 756 0
DWIDTH 11 0
BBX 10 12 0 -1
BITMAP
0007200000
003FD20000
0004D50000
2520351044
5F809F40EE
5F809F40EE
5F809F40EE
5F809F40EE
5F90AF40EE
1EFCFFEDFA
05EFD9FFB1
0001001100
ENDCHAR
STARTCHAR Wacute
ENCODING 7810
SWIDTH 819 0
DWIDTH 11 0
BBX 11 14 0 -1
BITMAP
000000360000
000004EE1000
000008B20000
2CA03C904C80
2FC04FB05FA0
2FC04FB05FA0
2FC04FB05FA0
2FC04FB05FA0
2FC04FB05FA0
2FC04FB05FA0
1FD05FC06F90
0CFDFFFDFF40
02CFF9DFE700
000100010000
ENDCHAR
STARTCHAR wacute
ENCODING 7811
SWIDTH 756 0
DWIDTH 11 0
BBX 10 12 0 -1
BITMAP
0000006200
000007FB00
00000C9100
2520351044
5F809F40EE
5F809F40EE
5F809F40EE
5F809F40EE
5F90AF40EE
1EFCFFEDFA
05EFD9FFB1
0001001100
ENDCHAR
STARTCHAR Wdieresis
ENCODING 7812
SWIDTH 819 0
DWIDTH 11 0
BBX 11 14 0 -1
BITMAP
000010000000
0004F4BB0000
000181550000
2CA03C904C80
2FC04FB05FA0
2FC04FB05FA0
2FC04FB05FA0
2FC04FB05FA0
2FC04FB05FA0
2FC04FB05FA0
1FD05FC06F90
0CFDFFFDFF40
02CFF9DFE700
000100010000
ENDCHAR
STARTCHAR wdieresis
ENCODING 7813
SWIDTH 756 0
DWIDTH 11 0
BBX 10 11 0 -1
BITMAP
0000101000
000BC3F400
2525969144
5F809F40EE
5F809F40EE
5F809F40EE
5F809F40EE
5F90AF40EE
1EFCFFEDFA
05EFD9FFB1
0001001100
ENDCHAR
STARTCHAR Ygrave
ENCODING 7922
SWIDTH 620 0
DWIDTH 9 0
BBX 9 13 0 0
BITMAP
0081000000
05FC100000
005D400000
7C40008C30
9F6000BF40
9F6000BF40
8F7000CF30
4FD205FE10
0BFFEFF600
008EFD5000
000AF50000
000AF50000
000AF50000
ENDCHAR
STARTCHAR ygrave
ENCODING 7923
SWIDTH 562 0
DWIDTH 8 0
BBX 8 14 0 -3
BITMAP
02600000
0BF70000
019C0000
25200351
6F700BF3
6F700BF3
6F700BF3
6F700BF3
4FA01EF3
1DFCDFF3
02CFEFF2
00128FD0
008FFE30
006C9200
ENDCHAR
STARTCHAR endash
ENCODING 8211
SWIDTH 418 0
DWIDTH 6 0
BBX 5 2 0 4
BITMAP
2DDDD0
2FFFF0
ENDCHAR
STARTCHAR emdash
ENCODING 8212
SWIDTH 719 0
DWIDTH 10 0
BBX 10 2 0 4
BITMAP
2DDDDDDDD3
2FFFFFFFF4
ENDCHAR
STARTCHAR quoteleft
ENCODING 8216
SWIDTH 246 0
DWIDTH 3 0
BBX 3 4 0 6
BITMAP
0820
3F40
6FD0
2B70
ENDCHAR
STARTCHAR quoteright
ENCODING 8217
SWIDTH 245 0
DWIDTH 3 0
BBX 3 4 0 6
BITMAP
2B60
6FC0
1CA0
0820
ENDCHAR
STARTCHAR quotesinglbase
ENCODING 8218
SWIDTH 264 0
DWIDTH 4 0
BBX 3 4 0 -2
BITMAP
1B80
4FF0
09C0
0640
ENDCHAR
STARTCHAR quotedblleft
ENCODING 8220
SWIDTH 445 0
DWIDTH 6 0
BBX 6 4 0 6
BITMAP
082091
3F46E2
6FD9FA
2B74C5
ENDCHAR
STARTCHAR quotedblright
ENCODING 8221
SWIDTH 444 0
DWIDTH 6 0
BBX 6 4 0 6
BITMAP
2B64B4
6FC9F9
1CA2D7
082091
ENDCHAR
STARTCHAR quotedblbase
ENCODING 8222
SWIDTH 463 0
DWIDTH 7 0
BBX 6 4 0 -2
BITMAP
1B83C6
4FF7FC
09C1C9
064082
ENDCHAR
STARTCHAR dagger
ENCODING 8224
SWIDTH 434 0
DWIDTH 6 0
BBX 6 14 0 -2
BITMAP
003300
00EF00
00EF00
6AFFA6
8FFFF9
23EF32
00EF00
00EF00
00EF00
00EF00
00EF00
00EF00
00EF00
006600
ENDCHAR
STARTCHAR daggerdbl
ENCODING 8225
SWIDTH 452 0
DWIDTH 6 0
BBX 6 14 0 -2
BITMAP
002300
00CF20
00CF20
4AEFB8
6FFFFB
13DF52
00CF20
00CF20
01CF31
6FFFFB
5CEFC9
00CF20
00CF20
005610
ENDCHAR
STARTCHAR bullet
ENCODING 8226
SWIDTH 354 0
DWIDTH 5 0
BBX 3 4 1 3
BITMAP
2720
DFC0
CFC0
1510
ENDCHAR
STARTCHAR ellipsis
ENCODING 8230
SWIDTH 789 0
DWIDTH 11 0
BBX 11 3 0 -1
BITMAP
1B804C408B10
4FE09F90DF50
063016103600
ENDCHAR
STARTCHAR perthousand
ENCODING 8240
SWIDTH 998 0
DWIDTH 14 0
BBX 14 11 0 -1
BITMAP
0AEA005C100000
4F6F50D9000000
6D0D77E1000000
4F6F6E70000000
0AEA9D10000000
0002F7AB407B80
000AC9DAE4F9F4
003F4C83F8D0C7
00BB0BB7F5F4E6
05F304EF80CFD1
00000011000100
ENDCHAR
STARTCHAR guilsinglleft
ENCODING 8249
SWIDTH 403 0
DWIDTH 6 0
BBX 5 7 0 0
BITMAP
000B80
00BFA0
0AFA00
6FE100
09FC10
008FC0
000740
ENDCHAR
STARTCHAR guilsinglright
ENCODING 8250
SWIDTH 402 0
DWIDTH 6 0
BBX 6 7 0 0
BITMAP
1C6000
2DF600
02DF50
005FE1
04EF40
3FE400
083000
ENDCHAR
STARTCHAR fraction
ENCODING 8260
SWIDTH 477 0
DWIDTH 7 0
BBX 7 10 0 0
BITMAP
00000B70
00006E20
0001E800
0008E100
002E6000
009D0000
03F50000
0BB00000
4F300000
CA000000
ENDCHAR
STARTCHAR Euro
ENCODING 8364
SWIDTH 806 0
DWIDTH 11 0
BBX 11 11 0 -1
BITMAP
000018CEC700
0003DFFFFF70
000DFB314B10
0AEFFED00000
0CEFDCA00000
28DFA8400000
6FFFFF500000
234EFA101700
0005FFDCEF60
00004CFFFA20
000000131000
ENDCHAR
STARTCHAR trademark
ENCODING 8482
SWIDTH 606 0
DWIDTH 9 0
BBX 8 4 0 6
BITMAP
2BC78BB4
0290A859
0290A849
01607536
ENDCHAR
STARTCHAR partialdiff
ENCODING 8706
SWIDTH 609 0
DWIDTH 9 0
BBX 8 12 0 -1
BITMAP
0008A500
0004FE10
0000AF70
00279FE0
05EFFFF5
1EF75CFA
6F8002FD
7F6000EE
5FC105FB
0BFECFF3
01AFFD40
00012000
ENDCHAR
STARTCHAR product
ENCODING 8719
SWIDTH 632 0
DWIDTH 9 0
BBX 9 10 0 0
BITMAP
6CCCCCCC40
7FFFFFFF50
15FC2DF310
03FB0DF100
03FB0DF100
03FB0DF100
03FB0DF100
03FB0DF100
03FB0DF100
03FB0DF100
ENDCHAR
STARTCHAR minus
ENCODING 8722
SWIDTH 543 0
DWIDTH 8 0
BBX 7 2 0 4
BITMAP
1DDDDD90
1FFFFFA0
ENDCHAR
STARTCHAR infinity
ENCODING 8734
SWIDTH 771 0
DWIDTH 11 0
BBX 11 7 0 1
BITMAP
019B618B7000
0CFFFEFFF900
4FA4DF94EF10
5F707F50AF30
3FE8DFD8EE00
09FFFBFFF600
004630473000
ENDCHAR
STARTCHAR approxequal
ENCODING 8776
SWIDTH 476 0
DWIDTH 7 0
BBX 6 6 0 2
BITMAP
06A367
1FFEEB
1D67C4
069367
1FFEEB
1D67C4
ENDCHAR
STARTCHAR notequal
ENCODING 8800
SWIDTH 512 0
DWIDTH 7 0
BBX 7 10 0 0
BITMAP
00001100
0000DD00
1446FA20
4FFFFF70
399FD940
27AFB730
4FFFFF70
28FA6620
08F30000
05600000
ENDCHAR
STARTCHAR fi
ENCODING 64257
SWIDTH 650 0
DWIDTH 9 0
BBX 9 11 0 0
BITMAP
003BED2820
03FFECBFA0
09F6006D50
3DF6555520
AFFFFFFF60
5DF988BF60
0CF1007F60
0CF1007F60
0CF1007F60
0CF1007F60
0CF1007F60
ENDCHAR
STARTCHAR fl
ENCODING 64258
SWIDTH 631 0
DWIDTH 9 0
BBX 9 11 0 0
BITMAP
003BEEEE20
03FFEEFF20
09F600BF20
3DF652BF20
AFFFF6BF20
5DF983BF20
0CF100BF20
0CF100BF20
0CF100BF20
0CF100BF20
0CF100BF20
ENDCHAR
STARTCHAR .notdef
ENCODING -1
SWIDTH 279 0
DWIDTH 4 0
BBX 1 1 0 0
BITMAP
00
ENDCHAR
STARTCHAR .null
ENCODING -1
SWIDTH 0 0
DWIDTH 0 0
BBX 1 1 0 0
BITMAP
00
ENDCHAR
STARTCHAR nonmarkingreturn
ENCODING -1
SWIDTH 279 0
DWIDTH 4 0
BBX 1 1 0 0
BITMAP
00
ENDCHAR
ENDFONT
